<!DOCTYPE svg PUBLIC "-//W3C//DTD SVG 20010904//EN" "http://www.w3.org/TR/2001/REC-SVG-20010904/DTD/svg10.dtd">
<svg version="1.0" xmlns="http://www.w3.org/2000/svg" width="392px" height="343px" viewBox="0 0 3920 3430" preserveAspectRatio="xMidYMid meet">
<g id="layer1" fill="#c43b40" stroke="none">
 <path d="M610 3236 c0 -2 7 -7 16 -10 8 -3 12 -2 9 4 -6 10 -25 14 -25 6z"/>
 <path d="M2440 3236 c0 -2 7 -7 16 -10 8 -3 12 -2 9 4 -6 10 -25 14 -25 6z"/>
 <path d="M533 3217 c0 -8 6 -14 14 -14 9 0 10 4 2 14 -6 7 -12 13 -14 13 -1 0 -2 -6 -2 -13z"/>
 <path d="M2363 3217 c0 -8 6 -14 14 -14 9 0 10 4 2 14 -6 7 -12 13 -14 13 -1 0 -2 -6 -2 -13z"/>
 <path d="M616 3202 c-3 -5 1 -9 9 -9 8 0 12 4 9 9 -3 4 -7 8 -9 8 -2 0 -6 -4 -9 -8z"/>
 <path d="M727 3189 c4 -13 8 -18 11 -10 2 7 -1 18 -6 23 -8 8 -9 4 -5 -13z"/>
 <path d="M2446 3202 c-3 -5 1 -9 9 -9 8 0 12 4 9 9 -3 4 -7 8 -9 8 -2 0 -6 -4 -9 -8z"/>
 <path d="M430 3181 c0 -12 5 -21 10 -21 6 0 10 6 10 14 0 8 -4 18 -10 21 -5 3 -10 -3 -10 -14z"/>
 <path d="M2260 3181 c0 -12 5 -21 10 -21 6 0 10 6 10 14 0 8 -4 18 -10 21 -5 3 -10 -3 -10 -14z"/>
 <path d="M911 3174 c0 -11 3 -14 6 -6 3 7 2 16 -1 19 -3 4 -6 -2 -5 -13z"/>
 <path d="M2521 3174 c0 -11 3 -14 6 -6 3 7 2 16 -1 19 -3 4 -6 -2 -5 -13z"/>
 <path d="M2641 3174 c0 -11 3 -14 6 -6 3 7 2 16 -1 19 -3 4 -6 -2 -5 -13z"/>
 <path d="M3161 3174 c0 -11 3 -14 6 -6 3 7 2 16 -1 19 -3 4 -6 -2 -5 -13z"/>
 <path d="M3432 3165 c0 -16 2 -22 5 -12 2 9 2 23 0 30 -3 6 -5 -1 -5 -18z"/>
 <path d="M3471 3174 c0 -11 3 -14 6 -6 3 7 2 16 -1 19 -3 4 -6 -2 -5 -13z"/>
 <path d="M1392 3145 c0 -16 2 -22 5 -12 2 9 2 23 0 30 -3 6 -5 -1 -5 -18z"/>
 <path d="M2531 3124 c0 -11 3 -14 6 -6 3 7 2 16 -1 19 -3 4 -6 -2 -5 -13z"/>
 <path d="M745 3110 c10 -11 20 -20 23 -20 3 0 -3 9 -13 20 -10 11 -20 20 -23 20 -3 0 3 -9 13 -20z"/>
 <path d="M1795 3110 c10 -11 20 -20 23 -20 3 0 -3 9 -13 20 -10 11 -20 20 -23 20 -3 0 3 -9 13 -20z"/>
 <path d="M3431 3114 c0 -11 3 -14 6 -6 3 7 2 16 -1 19 -3 4 -6 -2 -5 -13z"/>
 <path d="M1362 3090 c0 -14 2 -19 5 -12 2 6 2 18 0 25 -3 6 -5 1 -5 -13z"/>
 <path d="M2359 3093 c-13 -16 -12 -17 4 -4 16 13 21 21 13 21 -2 0 -10 -8 -17 -17z"/>
 <path d="M3661 3023 c-7 -8 -11 -16 -8 -19 2 -2 10 2 17 11 17 20 9 27 -9 8z"/>
 <path d="M645 2960 c-3 -5 -1 -10 4 -10 6 0 11 5 11 10 0 6 -2 10 -4 10 -3 0 -8 -4 -11 -10z"/>
 <path d="M2475 2960 c-3 -5 -1 -10 4 -10 6 0 11 5 11 10 0 6 -2 10 -4 10 -3 0 -8 -4 -11 -10z"/>
 <path d="M1773 2813 c9 -2 23 -2 30 0 6 3 -1 5 -18 5 -16 0 -22 -2 -12 -5z"/>
 <path d="M1918 2813 c6 -2 18 -2 25 0 6 3 1 5 -13 5 -14 0 -19 -2 -12 -5z"/>
 <path d="M2358 2773 c6 -2 18 -2 25 0 6 3 1 5 -13 5 -14 0 -19 -2 -12 -5z"/>
 <path d="M1614 2746 c-15 -11 -22 -12 -34 -3 -13 10 -13 10 -3 -4 7 -9 9 -20 5 -24 -4 -4 8 2 26 15 29 22 37 30 29 30 -2 0 -12 -6 -23 -14z"/>
 <path d="M2110 2736 c0 -2 8 -10 18 -17 15 -13 16 -12 3 4 -13 16 -21 21 -21 13z"/>
 <path d="M2150 2706 c0 -2 7 -6 15 -10 8 -3 15 -1 15 4 0 6 -7 10 -15 10 -8 0 -15 -2 -15 -4z"/>
 <path d="M2113 2655 c-3 -9 -3 -18 -1 -21 3 -3 8 4 11 16 6 23 -1 27 -10 5z"/>
 <path d="M2193 2625 c0 -27 2 -38 4 -22 2 15 2 37 0 50 -2 12 -4 0 -4 -28z"/>
 <path d="M2172 2610 c0 -19 2 -27 5 -17 2 9 2 25 0 35 -3 9 -5 1 -5 -18z"/>
 <path d="M1415 2589 c-4 -6 -5 -12 -2 -15 2 -3 7 2 10 11 7 17 1 20 -8 4z"/>
 <path d="M1339 2533 c-13 -16 -12 -17 4 -4 9 7 17 15 17 17 0 8 -8 3 -21 -13z"/>
 <path d="M2730 2521 c0 -6 4 -13 10 -16 6 -3 7 1 4 9 -7 18 -14 21 -14 7z"/>
 <path d="M2171 2463 c0 -11 3 -13 6 -5 2 6 10 9 15 6 7 -4 8 -2 4 4 -11 18 -26 14 -25 -5z"/>
 <path d="M1269 2423 c-13 -16 -12 -17 4 -4 9 7 17 15 17 17 0 8 -8 3 -21 -13z"/>
 <path d="M2762 2370 c0 -14 2 -19 5 -12 2 6 2 18 0 25 -3 6 -5 1 -5 -13z"/>
 <path d="M2170 2350 c0 -11 2 -20 4 -20 2 0 6 9 9 20 3 11 1 20 -4 20 -5 0 -9 -9 -9 -20z"/>
 <path d="M2190 2307 c0 -20 4 -38 9 -42 6 -3 7 10 4 32 -8 50 -13 55 -13 10z"/>
 <path d="M1149 2253 c-13 -16 -12 -17 4 -4 9 7 17 15 17 17 0 8 -8 3 -21 -13z"/>
 <path d="M1222 2254 c10 -10 20 -16 22 -13 3 3 -5 11 -17 18 -21 13 -21 12 -5 -5z"/>
 <path d="M1261 2244 c0 -11 3 -14 6 -6 3 7 2 16 -1 19 -3 4 -6 -2 -5 -13z"/>
 <path d="M2103 2218 c-2 -18 0 -20 7 -8 12 18 13 30 2 30 -4 0 -9 -10 -9 -22z"/>
 <path d="M2190 2200 c0 -22 3 -40 8 -40 4 0 6 18 4 40 -2 22 -6 40 -8 40 -2 0 -4 -18 -4 -40z"/>
 <path d="M2255 2230 c-4 -6 -4 -14 -1 -17 3 -4 6 0 6 8 1 10 5 8 15 -5 8 -11 15 -15 15 -9 0 18 -27 36 -35 23z"/>
 <path d="M1105 2209 c-4 -6 -5 -12 -2 -15 2 -3 7 2 10 11 7 17 1 20 -8 4z"/>
 <path d="M2172 2200 c0 -14 2 -19 5 -12 2 6 2 18 0 25 -3 6 -5 1 -5 -13z"/>
 <path d="M1343 2175 c0 -8 7 -15 15 -15 12 0 12 3 2 15 -7 8 -13 15 -15 15 -1 0 -2 -7 -2 -15z"/>
 <path d="M1497 2179 c7 -7 15 -10 18 -7 3 3 -2 9 -12 12 -14 6 -15 5 -6 -5z"/>
 <path d="M1710 2159 c0 -5 5 -7 10 -4 6 3 10 8 10 11 0 2 -4 4 -10 4 -5 0 -10 -5 -10 -11z"/>
 <path d="M1806 2161 c-3 -4 6 -6 19 -3 14 2 25 6 25 8 0 8 -39 4 -44 -5z"/>
 <path d="M1880 2150 l-35 -7 32 -2 c17 0 35 4 38 9 3 6 5 9 3 9 -2 -1 -19 -5 -38 -9z"/>
 <path d="M2763 2090 c0 -36 2 -50 4 -32 2 17 2 47 0 65 -2 17 -4 3 -4 -33z"/>
 <path d="M1815 2130 c-3 -6 1 -7 9 -4 18 7 21 14 7 14 -6 0 -13 -4 -16 -10z"/>
 <path d="M1920 2130 c0 -5 5 -10 11 -10 5 0 7 5 4 10 -3 6 -8 10 -11 10 -2 0 -4 -4 -4 -10z"/>
 <path d="M1058 2123 c6 -2 9 -10 6 -15 -4 -7 -2 -8 5 -4 13 9 5 26 -12 25 -9 0 -8 -2 1 -6z"/>
 <path d="M2136 2103 c-6 -14 -5 -15 5 -6 7 7 10 15 7 18 -3 3 -9 -2 -12 -12z"/>
 <path d="M973 2096 c-4 -7 -15 -16 -23 -19 -12 -4 -12 -6 2 -6 10 -1 22 8 28 19 12 22 6 28 -7 6z"/>
 <path d="M2113 2065 c0 -22 2 -30 4 -17 2 12 2 30 0 40 -3 9 -5 -1 -4 -23z"/>
 <path d="M1705 2079 c-11 -16 -1 -19 13 -3 7 8 8 14 3 14 -5 0 -13 -5 -16 -11z"/>
 <path d="M2381 2054 c0 -11 3 -14 6 -6 3 7 2 16 -1 19 -3 4 -6 -2 -5 -13z"/>
 <path d="M1628 2016 c4 -15 7 -17 10 -6 3 8 10 18 16 22 6 4 1 6 -10 6 -16 -2 -20 -7 -16 -22z"/>
 <path d="M1578 2023 c7 -3 16 -2 19 1 4 3 -2 6 -13 5 -11 0 -14 -3 -6 -6z"/>
 <path d="M1863 2015 c0 -8 4 -15 9 -15 4 0 8 4 8 9 0 6 -4 12 -8 15 -5 3 -9 -1 -9 -9z"/>
 <path d="M1997 2023 c-11 -11 -8 -21 9 -27 13 -5 14 -4 6 7 -7 8 -9 17 -5 20 3 4 4 7 1 7 -2 0 -8 -3 -11 -7z"/>
 <path d="M1050 2001 c0 -6 4 -13 10 -16 6 -3 7 1 4 9 -7 18 -14 21 -14 7z"/>
 <path d="M2700 1990 c8 -5 20 -10 25 -10 6 0 3 5 -5 10 -8 5 -19 10 -25 10 -5 0 -3 -5 5 -10z"/>
 <path d="M1570 1976 c0 -8 4 -17 9 -20 5 -4 7 3 4 14 -6 23 -13 26 -13 6z"/>
 <path d="M2034 1982 c6 -10 -17 -17 -46 -14 -3 1 -11 -4 -16 -11 -8 -10 -2 -12 28 -9 38 4 59 25 38 38 -7 4 -8 3 -4 -4z"/>
 <path d="M1891 1944 c0 -11 3 -14 6 -6 3 7 2 16 -1 19 -3 4 -6 -2 -5 -13z"/>
 <path d="M1620 1940 c-23 -7 -23 -8 -3 -9 12 -1 25 4 28 9 3 6 5 10 3 9 -2 -1 -14 -5 -28 -9z"/>
 <path d="M735 1929 c-11 -16 -1 -19 13 -3 7 8 8 14 3 14 -5 0 -13 -5 -16 -11z"/>
 <path d="M1924 1929 c-4 -7 -3 -9 4 -5 6 3 13 -2 15 -11 4 -16 5 -16 6 -1 1 21 -15 32 -25 17z"/>
 <path d="M2000 1936 c0 -2 13 -6 29 -8 17 -2 28 -1 25 4 -5 8 -54 12 -54 4z"/>
 <path d="M825 1920 c-4 -6 1 -7 11 -3 13 5 15 3 9 -7 -5 -9 -4 -11 4 -6 6 4 9 12 6 17 -8 12 -22 12 -30 -1z"/>
 <path d="M2020 1900 c-6 -11 -8 -20 -6 -20 3 0 10 9 16 20 6 11 8 20 6 20 -3 0 -10 -9 -16 -20z"/>
 <path d="M739 1893 c-13 -16 -12 -17 4 -4 9 7 17 15 17 17 0 8 -8 3 -21 -13z"/>
 <path d="M2470 1896 c0 -2 8 -10 18 -17 15 -13 16 -12 3 4 -13 16 -21 21 -21 13z"/>
 <path d="M2102 1861 c2 -7 7 -12 11 -12 12 1 9 15 -3 20 -7 2 -11 -2 -8 -8z"/>
 <path d="M808 1833 c5 -21 7 -23 10 -9 2 10 0 22 -6 28 -6 6 -7 0 -4 -19z"/>
 <path d="M2140 1851 c0 -6 4 -13 10 -16 6 -3 7 1 4 9 -7 18 -14 21 -14 7z"/>
 <path d="M2618 1833 c7 -3 16 -2 19 1 4 3 -2 6 -13 5 -11 0 -14 -3 -6 -6z"/>
 <path d="M2047 1809 c4 -13 8 -18 11 -10 2 7 -1 18 -6 23 -8 8 -9 4 -5 -13z"/>
 <path d="M955 1810 c3 -5 8 -10 11 -10 2 0 4 5 4 10 0 6 -5 10 -11 10 -5 0 -7 -4 -4 -10z"/>
 <path d="M2528 1787 c-3 -19 -2 -25 4 -19 6 6 8 18 6 28 -3 14 -5 12 -10 -9z"/>
 <path d="M908 1793 c6 -2 18 -2 25 0 6 3 1 5 -13 5 -14 0 -19 -2 -12 -5z"/>
 <path d="M776 1777 c3 -10 9 -15 12 -12 3 3 0 11 -7 18 -10 9 -11 8 -5 -6z"/>
 <path d="M1790 1786 c0 -2 7 -7 16 -10 8 -3 12 -2 9 4 -6 10 -25 14 -25 6z"/>
 <path d="M2763 1740 c0 -25 2 -35 4 -22 2 12 2 32 0 45 -2 12 -4 2 -4 -23z"/>
 <path d="M696 1757 c3 -10 9 -15 12 -12 3 3 0 11 -7 18 -10 9 -11 8 -5 -6z"/>
 <path d="M2488 1763 c7 -3 16 -2 19 1 4 3 -2 6 -13 5 -11 0 -14 -3 -6 -6z"/>
 <path d="M1928 1753 c6 -2 18 -2 25 0 6 3 1 5 -13 5 -14 0 -19 -2 -12 -5z"/>
 <path d="M2014 1733 c2 -10 6 -17 10 -16 15 3 16 11 2 22 -12 10 -14 9 -12 -6z"/>
 <path d="M2161 1724 c0 -11 3 -14 6 -6 3 7 2 16 -1 19 -3 4 -6 -2 -5 -13z"/>
 <path d="M1838 1723 c7 -3 16 -2 19 1 4 3 -2 6 -13 5 -11 0 -14 -3 -6 -6z"/>
 <path d="M1936 1718 c3 -5 10 -6 15 -3 13 9 11 12 -6 12 -8 0 -12 -4 -9 -9z"/>
 <path d="M2225 1720 c-3 -6 1 -7 9 -4 18 7 21 14 7 14 -6 0 -13 -4 -16 -10z"/>
 <path d="M2412 1710 c0 -14 2 -19 5 -12 2 6 2 18 0 25 -3 6 -5 1 -5 -13z"/>
 <path d="M2083 1713 c9 -2 25 -2 35 0 9 3 1 5 -18 5 -19 0 -27 -2 -17 -5z"/>
 <path d="M793 1703 c9 -2 23 -2 30 0 6 3 -1 5 -18 5 -16 0 -22 -2 -12 -5z"/>
 <path d="M2589 1697 c8 -9 16 -15 19 -12 3 3 12 -1 21 -8 14 -11 14 -10 2 6 -8 9 -16 15 -19 12 -3 -3 -12 1 -21 8 -14 11 -14 10 -2 -6z"/>
 <path d="M1857 1679 c4 -13 8 -18 11 -10 2 7 -1 18 -6 23 -8 8 -9 4 -5 -13z"/>
 <path d="M2530 1668 c-12 -22 -12 -22 6 -6 10 10 15 20 12 24 -4 3 -12 -5 -18 -18z"/>
 <path d="M2556 1653 c-6 -14 -5 -15 5 -6 7 7 10 15 7 18 -3 3 -9 -2 -12 -12z"/>
 <path d="M2620 1650 c0 -5 5 -10 11 -10 5 0 7 5 4 10 -3 6 -8 10 -11 10 -2 0 -4 -4 -4 -10z"/>
 <path d="M1866 1623 c-6 -14 -5 -15 5 -6 7 7 10 15 7 18 -3 3 -9 -2 -12 -12z"/>
 <path d="M2531 1633 c-1 -17 16 -25 25 -12 4 7 3 9 -4 5 -5 -3 -13 0 -15 6 -4 9 -6 10 -6 1z"/>
 <path d="M2105 1620 c-3 -5 -3 -10 2 -10 4 0 2 -4 -5 -9 -10 -6 -9 -11 4 -22 14 -11 16 -11 10 0 -5 8 -3 17 5 22 11 7 11 9 1 9 -7 0 -10 5 -7 10 3 6 4 10 1 10 -3 0 -8 -4 -11 -10z"/>
 <path d="M2270 1622 c0 -8 -5 -10 -12 -6 -10 5 -10 4 -1 -6 16 -17 35 -9 23 10 -7 11 -10 11 -10 2z"/>
 <path d="M2018 1613 c6 -2 18 -2 25 0 6 3 1 5 -13 5 -14 0 -19 -2 -12 -5z"/>
 <path d="M1626 1593 c-6 -14 -5 -15 5 -6 7 7 10 15 7 18 -3 3 -9 -2 -12 -12z"/>
 <path d="M2010 1580 c-6 -11 -8 -20 -6 -20 3 0 10 9 16 20 6 11 8 20 6 20 -3 0 -10 -9 -16 -20z"/>
 <path d="M2029 1563 c-13 -16 -12 -17 4 -4 9 7 17 15 17 17 0 8 -8 3 -21 -13z"/>
 <path d="M2145 1570 c-3 -5 -1 -10 4 -10 6 0 11 5 11 10 0 6 -2 10 -4 10 -3 0 -8 -4 -11 -10z"/>
 <path d="M2573 1555 c0 -8 3 -13 5 -10 3 3 12 -1 21 -7 10 -8 9 -4 -3 10 -23 26 -23 26 -23 7z"/>
 <path d="M2039 1543 c-13 -16 -12 -17 4 -4 9 7 17 15 17 17 0 8 -8 3 -21 -13z"/>
 <path d="M2113 1513 c0 -15 2 -22 4 -15 3 6 8 10 13 7 4 -3 14 3 21 12 12 14 12 16 -2 11 -9 -4 -21 -2 -27 4 -6 6 -9 0 -9 -19z"/>
 <path d="M2323 1495 c0 -27 2 -38 4 -22 2 15 2 37 0 50 -2 12 -4 0 -4 -28z"/>
 <path d="M1970 1495 c-13 -14 -22 -27 -19 -29 2 -2 14 10 27 25 29 36 24 38 -8 4z"/>
 <path d="M2347 1490 c3 -11 7 -20 9 -20 2 0 4 9 4 20 0 11 -4 20 -9 20 -5 0 -7 -9 -4 -20z"/>
 <path d="M2016 1482 c-2 -4 4 -8 14 -8 10 0 16 4 14 8 -3 4 -9 8 -14 8 -5 0 -11 -4 -14 -8z"/>
 <path d="M2475 1460 c-3 -6 1 -7 9 -4 18 7 21 14 7 14 -6 0 -13 -4 -16 -10z"/>
 <path d="M2432 1430 c-13 -11 -22 -24 -20 -28 1 -5 13 4 26 20 27 33 26 35 -6 8z"/>
 <path d="M2305 1430 c-3 -5 -1 -10 4 -10 6 0 11 5 11 10 0 6 -2 10 -4 10 -3 0 -8 -4 -11 -10z"/>
 <path d="M2265 1410 c-3 -6 1 -7 9 -4 18 7 21 14 7 14 -6 0 -13 -4 -16 -10z"/>
 <path d="M1980 1400 c-13 -8 -12 -10 3 -10 9 0 17 5 17 10 0 12 -1 12 -20 0z"/>
 <path d="M1750 1383 c1 -14 28 -44 32 -36 3 4 -3 16 -14 26 -10 9 -18 14 -18 10z"/>
 <path d="M2051 1374 c0 -11 3 -14 6 -6 3 7 2 16 -1 19 -3 4 -6 -2 -5 -13z"/>
 <path d="M2830 1356 c0 -2 8 -10 18 -17 15 -13 16 -12 3 4 -13 16 -21 21 -21 13z"/>
 <path d="M2830 1245 c-7 -8 -9 -15 -6 -15 4 0 14 7 22 15 9 8 11 15 6 15 -5 0 -15 -7 -22 -15z"/>
 <path d="M1731 1223 c12 -18 26 -33 31 -33 4 0 9 -10 9 -22 1 -18 2 -19 6 -5 3 11 -9 31 -33 55 -36 36 -36 36 -13 5z"/>
 <path d="M2910 1226 c0 -2 8 -10 18 -17 15 -13 16 -12 3 4 -13 16 -21 21 -21 13z"/>
 <path d="M2836 1201 c-4 -5 3 -7 14 -4 23 6 26 13 6 13 -8 0 -17 -4 -20 -9z"/>
 <path d="M1700 1180 c8 -5 20 -10 25 -10 6 0 3 5 -5 10 -8 5 -19 10 -25 10 -5 0 -3 -5 5 -10z"/>
 <path d="M1745 1171 c-3 -5 -2 -12 3 -15 5 -3 9 1 9 9 0 17 -3 19 -12 6z"/>
 <path d="M2479 1148 c-3 -22 -1 -34 4 -29 5 5 7 21 5 37 -3 27 -4 26 -9 -8z"/>
 <path d="M1706 1115 c13 -10 15 -14 5 -15 -8 0 -12 -3 -8 -6 3 -3 11 -3 17 1 13 8 -5 35 -23 35 -6 0 -2 -7 9 -15z"/>
 <path d="M2812 1080 c0 -14 2 -19 5 -12 2 6 2 18 0 25 -3 6 -5 1 -5 -13z"/>
 <path d="M2172 1055 c0 -16 2 -22 5 -12 2 9 2 23 0 30 -3 6 -5 -1 -5 -18z"/>
 <path d="M1973 1045 c-3 -9 -3 -18 -1 -21 3 -3 8 4 11 16 6 23 -1 27 -10 5z"/>
 <path d="M2981 1044 c0 -11 3 -14 6 -6 3 7 2 16 -1 19 -3 4 -6 -2 -5 -13z"/>
 <path d="M2096 1028 c3 -4 9 -8 15 -8 5 0 9 4 9 8 0 5 -7 9 -15 9 -8 0 -12 -4 -9 -9z"/>
 <path d="M2407 999 c4 -13 8 -18 11 -10 2 7 -1 18 -6 23 -8 8 -9 4 -5 -13z"/>
 <path d="M1553 1003 c9 -2 23 -2 30 0 6 3 -1 5 -18 5 -16 0 -22 -2 -12 -5z"/>
 <path d="M2096 997 c3 -10 9 -15 12 -12 3 3 0 11 -7 18 -10 9 -11 8 -5 -6z"/>
 <path d="M1650 974 c0 -6 8 -18 18 -27 16 -15 19 -15 19 -2 0 8 -3 13 -5 10 -3 -3 -11 3 -18 13 -7 9 -14 12 -14 6z"/>
 <path d="M2448 973 c6 -2 18 -2 25 0 6 3 1 5 -13 5 -14 0 -19 -2 -12 -5z"/>
 <path d="M1608 933 c7 -3 16 -2 19 1 4 3 -2 6 -13 5 -11 0 -14 -3 -6 -6z"/>
 <path d="M2520 886 c0 -2 7 -7 16 -10 8 -3 12 -2 9 4 -6 10 -25 14 -25 6z"/>
 <path d="M3066 837 c3 -10 9 -15 12 -12 3 3 0 11 -7 18 -10 9 -11 8 -5 -6z"/>
 <path d="M2486 823 c-6 -14 -5 -15 5 -6 7 7 10 15 7 18 -3 3 -9 -2 -12 -12z"/>
 <path d="M2019 797 c4 -5 32 -7 62 -5 l54 3 -62 5 c-34 3 -58 1 -54 -3z"/>
 <path d="M2457 777 c-3 -8 -2 -20 3 -26 5 -9 8 -4 8 13 0 29 -3 32 -11 13z"/>
 <path d="M1518 733 c6 -2 18 -2 25 0 6 3 1 5 -13 5 -14 0 -19 -2 -12 -5z"/>
 <path d="M2443 700 c0 -25 2 -35 4 -22 2 12 2 32 0 45 -2 12 -4 2 -4 -23z"/>
 <path d="M1580 721 c0 -6 4 -13 10 -16 6 -3 7 1 4 9 -7 18 -14 21 -14 7z"/>
 <path d="M2495 720 c3 -5 8 -10 11 -10 2 0 4 5 4 10 0 6 -5 10 -11 10 -5 0 -7 -4 -4 -10z"/>
 <path d="M1620 709 c0 -5 5 -7 10 -4 6 3 10 8 10 11 0 2 -4 4 -10 4 -5 0 -10 -5 -10 -11z"/>
 <path d="M2570 705 c0 -5 5 -17 10 -25 5 -8 10 -10 10 -5 0 6 -5 17 -10 25 -5 8 -10 11 -10 5z"/>
 <path d="M1671 664 c0 -11 3 -14 6 -6 3 7 2 16 -1 19 -3 4 -6 -2 -5 -13z"/>
 <path d="M2067 629 c7 -7 15 -10 18 -7 3 3 -2 9 -12 12 -14 6 -15 5 -6 -5z"/>
 <path d="M2173 590 c0 -30 2 -43 4 -27 2 15 2 39 0 55 -2 15 -4 2 -4 -28z"/>
 <path d="M2087 579 c-4 -16 -3 -18 9 -8 7 6 11 15 8 20 -8 13 -11 11 -17 -12z"/>
 <path d="M2463 533 c9 -2 25 -2 35 0 9 3 1 5 -18 5 -19 0 -27 -2 -17 -5z"/>
 <path d="M2171 504 c0 -11 3 -14 6 -6 3 7 2 16 -1 19 -3 4 -6 -2 -5 -13z"/>
 <path d="M1671 485 c0 -17 -7 -38 -13 -45 -7 -8 -5 -8 5 1 13 11 17 26 14 45 l-4 29 -2 -30z"/>
 <path d="M2058 473 c7 -3 16 -2 19 1 4 3 -2 6 -13 5 -11 0 -14 -3 -6 -6z"/>
 <path d="M2158 473 c7 -3 16 -2 19 1 4 3 -2 6 -13 5 -11 0 -14 -3 -6 -6z"/>
 <path d="M1600 410 c0 -6 7 -10 15 -10 8 0 15 2 15 4 0 2 -7 6 -15 10 -8 3 -15 1 -15 -4z"/>
 <path d="M1625 360 c-4 -6 -11 -8 -16 -5 -5 4 -9 1 -9 -4 0 -16 16 -13 30 4 7 8 10 15 7 15 -3 0 -9 -5 -12 -10z"/>
 <path d="M2411 324 c0 -11 3 -14 6 -6 3 7 2 16 -1 19 -3 4 -6 -2 -5 -13z"/>
 <path d="M1971 314 c0 -11 3 -14 6 -6 3 7 2 16 -1 19 -3 4 -6 -2 -5 -13z"/>
 <path d="M1558 303 c6 -2 18 -2 25 0 6 3 1 5 -13 5 -14 0 -19 -2 -12 -5z"/>
 <path d="M2589 183 c-13 -16 -12 -17 4 -4 16 13 21 21 13 21 -2 0 -10 -8 -17 -17z"/>
 <path d="M2523 163 c9 -2 25 -2 35 0 9 3 1 5 -18 5 -19 0 -27 -2 -17 -5z"/>
 </g>
<g id="layer2" fill="#a80405" stroke="none">
 <path d="M1120 3375 c0 -4 16 -57 37 -117 21 -65 32 -113 27 -118 -5 -5 -22 -3 -41 5 -24 10 -35 24 -44 53 l-11 39 -72 -3 c-39 -2 -89 -4 -111 -5 -33 -1 -36 -2 -15 -8 19 -5 26 -15 30 -41 6 -38 35 -60 83 -60 20 0 27 -5 27 -20 0 -22 -17 -25 -54 -9 -19 9 -29 8 -45 -3 -20 -14 -16 -15 51 -21 40 -3 74 -4 76 -2 2 2 -1 18 -7 36 -6 18 -11 49 -11 70 0 32 3 39 20 39 17 0 20 -7 20 -49 0 -28 5 -53 10 -56 6 -4 10 5 10 21 0 26 0 26 18 6 15 -18 70 -42 95 -42 17 0 -1 76 -44 183 -40 100 -49 119 -49 102z m-100 -200 c0 -31 -3 -35 -26 -35 -36 0 -64 17 -64 40 0 22 13 28 58 29 30 1 32 -1 32 -34z"/>
 <path d="M3198 3365 c-33 -18 -39 -60 -10 -69 20 -7 79 3 185 30 37 9 70 14 73 11 3 -3 -4 -28 -16 -55 l-22 -50 -94 5 c-111 6 -144 -7 -144 -56 0 -36 18 -51 70 -58 30 -4 40 -10 40 -24 0 -22 -18 -24 -54 -8 -19 9 -29 8 -45 -3 -20 -14 -16 -15 51 -21 40 -3 73 -5 75 -3 1 1 -2 18 -7 37 -13 44 -13 109 0 109 6 0 10 -19 10 -43 0 -58 33 -92 79 -82 17 4 33 10 36 15 3 4 7 41 10 80 3 41 16 97 29 130 27 66 21 76 -31 52 -34 -16 -29 -16 -188 14 -11 2 -32 -3 -47 -11z m117 -14 c44 -9 16 -22 -61 -29 -63 -5 -76 2 -52 26 13 13 63 14 113 3z m-45 -176 c0 -31 -3 -35 -26 -35 -36 0 -64 17 -64 40 0 22 13 28 58 29 30 1 32 -1 32 -34z m125 -15 c0 -42 -2 -45 -28 -48 -21 -3 -29 2 -36 20 -4 13 -7 29 -5 36 13 41 15 43 41 40 26 -3 28 -6 28 -48z"/>
 <path d="M3740 3376 c0 -3 16 -56 37 -117 21 -66 32 -114 27 -119 -19 -19 -72 20 -88 64 l-14 41 -1 -67 c-1 -37 4 -70 9 -73 6 -4 10 5 10 21 0 26 0 26 18 6 15 -18 70 -42 95 -42 17 0 -1 76 -44 183 -39 97 -49 119 -49 103z"/>
 <path d="M2644 3356 c-33 -24 -161 -56 -248 -63 -73 -6 -78 -5 -74 13 2 15 14 20 63 24 l60 5 -54 9 c-47 7 -56 6 -74 -13 -17 -17 -19 -25 -11 -39 17 -24 104 -20 231 12 56 14 104 26 107 26 12 0 5 -36 -16 -87 l-22 -53 -22 21 c-27 26 -54 19 -53 -13 1 -17 2 -18 6 -5 2 9 11 17 18 17 19 0 34 -30 41 -85 8 -57 26 -59 23 -2 -2 25 9 76 25 124 15 45 26 92 24 103 -3 19 -5 19 -24 6z"/>
 <path d="M187 3294 c-4 -4 -7 -21 -7 -37 l0 -30 -53 6 c-30 3 -60 2 -67 -3 -21 -13 23 -30 79 -30 l51 0 -1 -72 c-2 -117 -11 -133 -68 -117 -8 2 -16 -3 -18 -11 -5 -24 62 -40 120 -29 71 13 165 66 184 103 9 17 17 32 18 34 1 1 17 -12 36 -29 27 -25 35 -29 37 -15 2 9 8 16 13 16 5 0 19 11 31 25 11 13 25 22 30 19 4 -3 17 15 28 40 10 25 22 46 24 46 16 0 56 -104 56 -144 0 -36 4 -45 21 -49 20 -5 20 -5 3 14 -14 16 -15 23 -5 42 10 18 9 38 -2 97 -13 63 -15 68 -16 35 l-2 -40 -28 35 c-33 39 -31 39 -56 -9 l-17 -33 -18 30 c-29 47 -65 67 -95 54 -16 -8 -25 -20 -25 -34 1 -21 2 -21 11 -5 10 17 54 23 75 9 6 -4 16 -17 23 -29 13 -26 5 -47 -27 -76 -29 -26 -55 -18 -69 23 -7 22 -12 28 -12 15 -1 -16 -5 -14 -21 12 -25 42 -67 63 -143 71 -56 6 -62 9 -65 32 -4 29 -15 43 -25 34z m158 -108 c19 -8 40 -27 47 -41 10 -22 8 -30 -9 -53 -21 -28 -88 -66 -135 -78 l-28 -6 0 96 0 96 45 0 c25 0 61 -7 80 -14z"/>
 <path d="M1370 3240 c-10 -20 -18 -22 -58 -17 -54 6 -82 -5 -82 -32 0 -25 51 -67 91 -76 l32 -7 -7 -85 c-4 -50 -3 -83 2 -79 5 3 12 58 15 122 4 64 9 119 12 123 13 13 25 -27 20 -66 -5 -35 -3 -43 9 -43 19 0 19 1 5 93 -12 82 -22 99 -39 67z m-42 -46 c23 -7 30 -38 11 -49 -23 -15 -89 19 -89 46 0 10 43 12 78 3z"/>
 <path d="M2123 3244 c-38 -19 -38 -20 -16 -92 16 -51 16 -54 0 -63 -9 -6 -17 -17 -17 -26 0 -11 6 -14 25 -9 24 6 28 2 57 -64 17 -38 35 -70 39 -70 13 0 12 3 -16 66 -14 31 -25 60 -25 65 0 5 21 9 48 10 52 0 41 10 -34 28 -37 10 -41 15 -56 61 -16 49 -16 50 5 65 12 8 34 15 49 15 15 0 30 5 33 10 3 6 -3 10 -14 10 -10 0 -25 2 -33 5 -7 2 -28 -3 -45 -11z"/>
 <path d="M1615 3225 c-38 -14 -71 -25 -72 -25 -2 0 -3 -4 -3 -10 0 -5 7 -10 15 -10 8 0 15 4 15 8 0 13 91 42 131 42 19 0 44 -7 55 -15 18 -15 18 -16 -16 -46 -20 -18 -26 -26 -13 -20 12 6 25 16 29 23 4 7 13 -2 23 -23 15 -30 71 -79 93 -79 18 0 32 49 20 74 -9 21 -15 23 -55 19 -53 -6 -66 7 -42 44 15 23 16 25 2 20 -9 -3 -29 0 -44 8 -38 20 -57 19 -138 -10z m265 -105 c0 -22 -20 -26 -51 -10 -30 16 -23 30 16 30 28 0 35 -4 35 -20z"/>
 <path d="M2288 3239 c-10 -5 -18 -20 -18 -32 1 -20 2 -20 11 -4 10 17 54 23 75 9 6 -4 16 -17 23 -29 13 -26 5 -47 -27 -76 -29 -27 -55 -18 -68 23 -10 31 -12 32 -18 12 -4 -11 -3 -30 3 -40 13 -24 61 -57 61 -42 0 14 61 66 72 62 5 -1 17 18 28 43 11 25 22 45 24 45 15 0 56 -104 57 -142 1 -45 1 -46 19 27 1 6 2 24 1 40 -1 23 -3 27 -11 15 -7 -11 -10 -11 -10 -2 0 15 -49 82 -59 82 -4 0 -15 -16 -25 -37 l-17 -36 -19 30 c-19 32 -57 63 -75 63 -5 0 -18 -5 -27 -11z"/>
 <path d="M2996 3225 c-38 -13 -74 -29 -80 -35 -19 -19 17 -11 68 15 56 28 122 33 152 10 18 -15 18 -16 -16 -46 -19 -17 -26 -27 -15 -21 32 16 58 50 51 67 -6 16 -46 35 -74 35 -9 0 -48 -11 -86 -25z"/>
 <path d="M788 3233 c12 -2 30 -2 40 0 9 3 -1 5 -23 4 -22 0 -30 -2 -17 -4z"/>
 <path d="M1838 3233 c12 -2 30 -2 40 0 9 3 -1 5 -23 4 -22 0 -30 -2 -17 -4z"/>
 <path d="M2672 3224 c-26 -18 -30 -65 -7 -84 8 -6 32 -14 55 -17 30 -4 40 -10 40 -24 0 -22 -18 -24 -54 -8 -19 9 -29 8 -45 -3 -20 -14 -16 -15 51 -21 40 -3 73 -5 75 -3 1 1 -2 18 -7 37 -6 18 -10 51 -10 73 0 36 2 38 25 34 29 -6 30 -5 9 16 -20 21 -102 21 -132 0z m78 -49 c0 -31 -3 -35 -26 -35 -36 0 -64 17 -64 40 0 22 13 28 58 29 30 1 32 -1 32 -34z"/>
 <path d="M3502 3224 c-26 -18 -30 -65 -7 -84 8 -6 32 -14 55 -17 30 -4 40 -10 40 -24 0 -22 -18 -24 -54 -8 -19 9 -29 8 -45 -3 -20 -14 -16 -15 51 -21 40 -3 74 -4 76 -2 2 2 -1 18 -7 36 -6 18 -11 49 -11 70 0 32 3 39 20 39 11 0 20 4 20 9 0 25 -104 29 -138 5z m78 -49 c0 -31 -3 -35 -26 -35 -36 0 -64 17 -64 40 0 22 13 28 58 29 30 1 32 -1 32 -34z"/>
 <path d="M3648 3225 c-2 -11 0 -31 4 -45 5 -13 6 -41 3 -62 -6 -31 -4 -38 9 -38 19 0 19 13 2 100 -8 39 -15 57 -18 45z"/>
 <path d="M730 3209 c-23 -41 7 -97 69 -129 21 -11 26 -10 38 6 15 21 16 39 3 63 -8 15 -18 18 -55 14 -52 -6 -70 14 -40 47 10 11 13 20 7 20 -6 0 -16 -9 -22 -21z m100 -84 c0 -21 -24 -29 -49 -15 -32 16 -25 30 14 30 25 0 35 -4 35 -15z"/>
 <path d="M1940 3220 c34 -11 60 -11 35 0 -11 5 -29 8 -40 8 -16 0 -15 -2 5 -8z"/>
 <path d="M1638 3112 c-16 -9 -28 -20 -28 -24 0 -4 12 -10 28 -14 15 -3 39 -9 54 -14 14 -5 29 -6 32 -3 10 11 -14 31 -32 27 -9 -2 -24 0 -32 6 -13 9 -12 12 4 25 27 20 7 18 -26 -3z"/>
 <path d="M3018 3112 c-30 -18 -35 -31 -15 -36 56 -15 97 -22 102 -18 9 10 -16 30 -33 26 -9 -2 -24 0 -32 6 -13 9 -12 12 4 25 27 20 7 18 -26 -3z"/>
 <path d="M1402 3045 c-10 -12 -8 -16 10 -26 18 -9 21 -9 11 1 -6 7 -9 19 -6 26 7 18 2 17 -15 -1z"/>
 <path d="M3663 3045 c-7 -8 -9 -16 -4 -19 5 -3 12 1 15 10 8 22 4 25 -11 9z"/>
 <path d="M870 2987 c0 -30 4 -46 10 -42 13 8 13 55 0 75 -7 11 -10 2 -10 -33z"/>
 <path d="M670 2989 c-7 -11 -10 -23 -7 -25 2 -2 9 7 15 21 14 30 7 33 -8 4z"/>
 <path d="M2496 2985 c-9 -26 -7 -32 5 -12 6 10 9 21 6 23 -2 3 -7 -2 -11 -11z"/>
 <path d="M1826 2825 c-15 -8 -37 -15 -47 -15 -19 0 -28 -4 -76 -28 -13 -7 -29 -12 -37 -12 -8 0 -38 -22 -66 -50 -28 -27 -58 -50 -65 -50 -8 0 -18 -6 -22 -14 -4 -7 -22 -21 -40 -30 -17 -9 -38 -24 -45 -35 -7 -10 -23 -21 -35 -25 -27 -9 -73 -62 -73 -85 0 -9 -8 -23 -17 -32 -29 -25 -73 -82 -73 -94 0 -6 -11 -22 -25 -35 -13 -12 -23 -26 -22 -31 3 -11 -83 -98 -142 -144 -29 -22 -57 -48 -62 -57 -5 -10 -20 -18 -33 -18 -32 0 -133 -68 -178 -120 -37 -42 -52 -74 -23 -50 8 6 23 9 35 5 14 -4 28 -1 40 10 20 18 42 13 34 -9 -3 -7 0 -25 6 -41 10 -27 11 -27 31 -9 12 11 23 14 27 9 4 -6 16 -12 27 -13 11 -2 26 -9 33 -14 16 -14 17 -12 28 42 8 41 12 45 39 45 36 1 45 27 19 56 -19 22 -12 38 9 20 11 -9 17 -8 27 3 9 12 9 20 -4 38 -20 29 -21 44 -1 28 22 -18 30 -5 30 51 0 38 3 48 15 46 9 -1 14 5 12 16 -2 9 0 17 4 17 8 0 67 -42 77 -55 5 -7 10 -6 16 3 4 8 12 14 17 14 27 1 53 19 48 33 -4 9 0 15 9 15 10 0 13 -7 10 -20 -3 -12 0 -20 6 -20 7 0 9 5 6 10 -3 6 1 10 9 10 9 0 15 -3 14 -7 -4 -12 5 -15 25 -8 9 4 17 13 17 21 0 30 20 12 41 -36 12 -27 28 -50 35 -50 10 0 13 -7 9 -22 -9 -39 19 -63 71 -61 25 1 55 8 67 16 33 20 57 28 57 16 0 -5 -11 -15 -25 -21 -14 -6 -25 -17 -25 -25 0 -8 -12 -13 -31 -13 -26 0 -30 -3 -27 -22 2 -14 11 -24 23 -26 47 -7 65 -13 65 -22 0 -5 -16 -6 -36 -3 l-37 6 7 -38 c17 -87 66 -145 139 -161 33 -7 78 23 55 37 -7 4 -9 11 -5 15 3 4 13 2 20 -4 10 -9 17 -4 31 19 14 23 21 28 27 18 10 -16 24 34 15 56 -3 8 -1 15 3 15 5 0 11 -6 14 -12 2 -7 8 1 12 17 4 17 12 36 18 43 7 8 5 12 -7 12 -9 0 -16 -4 -16 -10 0 -15 -20 -12 -20 3 -1 12 -85 57 -107 57 -7 0 -13 5 -13 10 0 17 28 11 80 -15 57 -29 64 -30 56 -10 -4 10 1 15 14 15 11 0 20 -4 20 -10 0 -5 -5 -10 -12 -10 -9 0 -9 -3 0 -12 6 -6 14 -10 16 -7 13 14 166 329 166 342 0 9 5 17 11 17 7 0 9 -10 5 -26 -6 -23 -4 -25 16 -20 13 3 17 3 11 0 -17 -7 -17 -31 -1 -36 10 -4 10 -10 1 -31 -8 -17 -9 -28 -2 -33 6 -4 6 -11 -2 -21 -11 -12 -14 -12 -21 1 -10 18 -28 21 -28 5 0 -5 5 -7 10 -4 10 6 15 -13 12 -47 -3 -28 6 -21 30 25 18 35 22 59 22 139 1 54 4 98 7 98 8 0 19 -37 19 -63 0 -24 21 -45 39 -39 10 3 11 0 1 -18 -11 -21 -10 -22 8 -17 22 5 50 -18 38 -30 -4 -4 -11 -1 -16 7 -8 13 -10 13 -10 -1 0 -23 89 -112 105 -105 21 8 26 -6 7 -20 -16 -13 -16 -13 2 -14 14 0 17 -5 13 -21 -4 -16 1 -24 28 -35 22 -9 42 -29 59 -60 32 -57 32 -63 5 -38 -22 19 -22 19 -11 -1 5 -11 24 -32 41 -47 30 -27 47 -36 37 -20 -3 5 25 9 62 10 37 1 85 2 107 2 30 1 36 3 25 11 -11 8 -12 12 -2 16 18 7 33 39 26 57 -3 9 -11 13 -17 9 -5 -3 -16 2 -23 11 -8 11 -14 13 -19 7 -7 -12 -35 -15 -35 -3 0 4 4 13 9 21 11 17 51 6 51 -14 0 -9 6 -12 15 -9 12 5 15 25 15 89 0 46 5 96 10 111 8 20 8 29 -1 34 -8 6 -8 13 1 30 9 18 10 40 1 94 -6 39 -13 92 -16 118 -7 51 -59 168 -75 168 -5 0 -10 7 -10 16 0 41 -72 104 -119 104 -11 0 -26 6 -33 14 -8 8 -49 17 -96 21 -78 7 -83 6 -113 -19 -17 -14 -35 -26 -40 -26 -5 0 -11 -11 -15 -25 -7 -27 -24 -34 -24 -10 0 8 -7 15 -15 15 -12 0 -15 -13 -15 -60 0 -49 -3 -60 -16 -60 -14 0 -15 8 -10 54 l7 53 -37 22 c-27 16 -35 27 -31 41 6 24 -17 27 -39 5 -21 -20 -29 -19 -43 8 -13 24 -61 47 -97 47 -11 0 -24 4 -29 9 -20 18 -51 20 -79 6z m270 -92 c-10 -10 -19 5 -10 18 6 11 8 11 12 0 2 -7 1 -15 -2 -18z m39 -85 c25 -54 31 -78 18 -78 -15 1 -62 130 -48 130 3 0 17 -24 30 -52z m475 32 c0 -5 -5 -10 -11 -10 -5 0 -7 5 -4 10 3 6 8 10 11 10 2 0 4 -4 4 -10z m-480 -170 c0 -5 -7 -7 -15 -4 -8 4 -15 8 -15 10 0 2 7 4 15 4 8 0 15 -4 15 -10z m30 -24 c0 -3 -4 -8 -10 -11 -5 -3 -10 -1 -10 4 0 6 5 11 10 11 6 0 10 -2 10 -4z m32 -21 c0 -5 -5 -11 -11 -13 -6 -2 -11 4 -11 13 0 9 5 15 11 13 6 -2 11 -8 11 -13z m-52 -100 c0 -8 -4 -15 -10 -15 -5 0 -10 7 -10 15 0 8 5 15 10 15 6 0 10 -7 10 -15z m-260 -100 c0 -8 -4 -15 -10 -15 -5 0 -10 7 -10 15 0 8 5 15 10 15 6 0 10 -7 10 -15z m-626 -9 c11 4 16 1 16 -10 0 -9 -7 -15 -17 -13 -25 4 -43 16 -43 29 0 7 5 7 14 -1 7 -6 21 -9 30 -5z m816 -8 c0 -17 -18 -44 -24 -37 -8 7 5 49 15 49 5 0 9 -6 9 -12z m-200 -40 c0 -18 -2 -20 -9 -8 -6 8 -7 18 -5 22 9 14 14 9 14 -14z m-33 6 c-3 -3 -12 -4 -19 -1 -8 3 -5 6 6 6 11 1 17 -2 13 -5z m-102 -14 c-3 -5 -10 -10 -16 -10 -5 0 -9 5 -9 10 0 6 7 10 16 10 8 0 12 -4 9 -10z m308 3 c8 -7 -11 -33 -24 -33 -4 0 -7 9 -6 20 1 20 17 27 30 13z m-503 -12 c0 -12 -29 -23 -42 -15 -6 4 -5 10 3 15 18 11 39 11 39 0z m190 -31 c0 -5 -4 -10 -10 -10 -5 0 -10 5 -10 10 0 6 5 10 10 10 6 0 10 -4 10 -10z m143 3 c28 -3 45 -9 41 -15 -7 -11 -89 -3 -127 12 -20 8 -20 9 8 9 17 -1 51 -3 78 -6z m-25 -40 c5 -18 -10 -16 -34 2 -18 15 -18 15 5 13 14 -2 26 -9 29 -15z m92 7 c0 -5 -4 -10 -10 -10 -5 0 -10 5 -10 10 0 6 5 10 10 10 6 0 10 -4 10 -10z m-862 -19 c3 -8 -1 -12 -9 -9 -7 2 -15 10 -17 17 -3 8 1 12 9 9 7 -2 15 -10 17 -17z m862 -11 c0 -5 -4 -10 -10 -10 -5 0 -10 5 -10 10 0 6 5 10 10 10 6 0 10 -4 10 -10z m-210 -25 c0 -8 -7 -15 -15 -15 -16 0 -20 12 -8 23 11 12 23 8 23 -8z m160 5 c0 -5 -4 -10 -10 -10 -5 0 -10 5 -10 10 0 6 5 10 10 10 6 0 10 -4 10 -10z m540 0 c0 -5 -7 -10 -15 -10 -8 0 -15 5 -15 10 0 6 7 10 15 10 8 0 15 -4 15 -10z m-551 -71 c2 -6 0 -10 -5 -7 -25 11 -67 29 -89 38 -14 5 -25 14 -25 19 0 12 114 -35 119 -50z m66 52 c3 -5 1 -12 -4 -16 -6 -3 -8 -12 -4 -20 3 -8 0 -15 -6 -15 -6 0 -11 14 -11 30 0 29 13 40 25 21z m665 -51 c0 -5 -4 -10 -10 -10 -5 0 -10 5 -10 10 0 6 5 10 10 10 6 0 10 -4 10 -10z"/>
 <path d="M2200 2219 c0 -44 13 -69 35 -69 5 0 2 5 -8 11 -13 8 -17 21 -15 49 1 22 -1 43 -5 46 -4 4 -7 -13 -7 -37z"/>
 <path d="M1402 2157 c-9 -11 -10 -17 -2 -22 15 -9 23 -1 18 21 -3 15 -4 16 -16 1z"/>
 <path d="M1180 2156 c0 -2 7 -17 16 -35 11 -21 21 -30 31 -27 8 3 21 6 29 6 8 0 14 5 14 10 0 6 -9 10 -20 10 -11 0 -20 3 -20 8 0 4 -11 12 -25 19 -14 6 -25 10 -25 9z"/>
 <path d="M2052 2129 c-8 -13 -8 -19 0 -21 7 -3 8 -10 4 -17 -6 -9 -11 -10 -15 -3 -3 6 -16 -7 -27 -28 -15 -26 -17 -37 -8 -33 8 3 14 10 14 16 0 6 3 7 6 4 4 -4 1 -14 -6 -23 -12 -13 -11 -17 1 -25 19 -12 2 -11 -22 1 -11 7 -19 7 -19 1 0 -5 -3 -18 -6 -28 -5 -15 -4 -16 5 -2 7 11 23 15 56 13 40 -3 45 -1 35 11 -10 12 -9 16 4 21 9 3 16 13 16 21 0 8 5 11 10 8 6 -3 10 3 10 15 0 14 -4 19 -12 14 -8 -5 -9 -2 -5 9 3 9 2 19 -3 22 -17 10 -11 25 7 18 10 -4 14 -2 10 4 -12 20 -44 21 -55 2z"/>
 <path d="M2048 1953 c7 -3 16 -2 19 1 4 3 -2 6 -13 5 -11 0 -14 -3 -6 -6z"/>
 <path d="M1950 1922 c0 -10 -5 -23 -11 -29 -6 -6 -20 -30 -30 -52 -17 -39 -17 -41 0 -41 10 0 26 9 36 20 10 11 24 20 32 20 8 0 11 5 8 10 -3 6 1 10 9 10 9 0 16 7 16 15 0 8 8 23 19 34 18 18 18 19 -18 25 -54 9 -61 8 -61 -12z m40 -6 c0 -8 3 -21 6 -30 3 -9 1 -16 -5 -16 -6 0 -11 7 -11 15 0 8 -4 15 -10 15 -5 0 -10 7 -10 15 0 8 7 15 15 15 8 0 15 -6 15 -14z m-25 -55 c-3 -6 -14 -11 -23 -11 -15 1 -15 2 2 15 21 16 32 13 21 -4z"/>
 <path d="M794 1842 c5 -16 1 -21 -21 -25 -14 -3 -35 0 -45 7 -20 12 -38 -4 -38 -35 0 -20 36 -59 55 -59 8 0 15 -4 15 -10 0 -26 125 3 138 33 2 4 11 7 21 7 26 0 55 25 46 39 -5 9 -10 10 -18 2 -6 -6 -24 -11 -40 -11 -20 0 -30 -6 -34 -20 -3 -11 -14 -20 -25 -20 -10 0 -17 4 -13 9 3 6 -3 14 -13 20 -14 7 -18 18 -14 39 2 17 -1 33 -8 37 -9 5 -10 2 -6 -13z m-18 -56 c11 -8 15 -18 10 -23 -5 -4 -11 -2 -13 5 -3 6 -11 12 -19 12 -8 0 -14 5 -14 10 0 14 13 12 36 -4z"/>
 <path d="M2021 1851 c-9 -6 -11 -18 -7 -35 7 -30 -1 -34 -20 -8 -12 16 -13 16 -19 0 -4 -10 -15 -18 -25 -18 -11 0 -22 -5 -26 -12 -4 -7 -3 -8 4 -4 12 7 75 -17 102 -40 8 -6 36 -14 62 -16 l48 -3 15 44 c16 48 14 66 -5 32 -8 -16 -15 -19 -28 -12 -9 4 -23 6 -29 4 -7 -3 -13 1 -13 7 0 7 -6 10 -14 7 -8 -3 -16 2 -18 11 -7 24 1 42 18 42 9 0 13 -3 10 -8 -2 -4 7 -13 21 -19 24 -12 24 -11 10 10 -15 23 -62 33 -86 18z"/>
 <path d="M2155 1840 c3 -5 8 -10 11 -10 2 0 4 5 4 10 0 6 -5 10 -11 10 -5 0 -7 -4 -4 -10z"/>
 <path d="M2225 1840 c-3 -5 -3 -10 2 -11 4 0 -2 -4 -14 -9 -13 -5 -23 -14 -23 -20 0 -6 5 -8 10 -5 6 3 10 1 10 -4 0 -6 -6 -11 -14 -11 -14 0 -26 -21 -26 -46 0 -11 9 -9 35 8 21 14 35 31 35 44 0 11 5 25 10 30 8 8 6 15 -4 23 -10 8 -16 9 -21 1z"/>
 <path d="M2645 1833 c-93 -8 -104 -12 -107 -41 -4 -36 -40 -41 -80 -12 -16 12 -33 19 -36 15 -4 -4 -7 -29 -7 -57 0 -35 -4 -53 -14 -56 -9 -3 -12 0 -9 10 4 8 2 21 -3 29 -14 22 -11 -9 8 -96 16 -75 16 -76 -5 -98 -16 -17 -22 -36 -22 -70 0 -26 -3 -47 -6 -47 -3 0 -14 10 -25 23 -16 19 -18 19 -19 5 0 -10 -4 -18 -10 -18 -12 0 -13 37 -1 42 5 2 11 26 13 55 3 39 1 50 -8 46 -7 -3 -25 7 -39 22 -20 19 -32 24 -48 19 -19 -6 -20 -5 -8 9 9 12 18 14 31 7 22 -12 26 -2 25 54 0 31 -4 40 -19 42 -28 4 -95 -28 -102 -48 -3 -10 -11 -18 -17 -18 -7 0 -17 -11 -23 -24 -9 -20 -9 -23 2 -19 9 3 14 -2 14 -16 0 -23 -14 -28 -26 -10 -4 7 -31 -14 -70 -55 -58 -61 -84 -79 -84 -58 0 5 11 19 25 32 14 13 25 33 25 45 0 27 29 69 30 43 0 -9 -6 -19 -12 -21 -8 -3 -9 -6 -2 -6 6 -1 31 17 55 38 34 30 39 38 22 34 -13 -3 -23 -9 -23 -14 0 -5 -24 -9 -52 -9 -51 1 -52 1 -28 15 14 8 37 14 52 15 17 0 33 8 40 20 7 11 24 20 38 20 20 0 22 2 10 10 -8 5 -34 10 -57 10 -31 0 -46 5 -57 21 -19 28 -96 38 -115 15 -8 -9 -29 -16 -51 -16 -39 0 -150 -45 -150 -60 0 -5 -13 -17 -30 -27 -16 -9 -30 -23 -30 -30 0 -8 -7 -16 -15 -19 -17 -7 -20 -77 -6 -134 5 -19 12 -47 15 -62 5 -24 11 -28 41 -28 19 0 46 -5 60 -12 28 -13 45 -4 27 14 -7 7 -12 17 -12 22 0 6 7 3 15 -8 18 -24 68 -30 128 -14 38 9 52 9 67 0 29 -18 40 -15 39 11 0 19 -1 20 -8 4 -6 -17 -8 -16 -19 9 -12 26 -5 48 16 49 4 1 18 7 30 14 26 14 45 6 22 -9 -13 -8 -12 -10 3 -10 9 0 17 5 17 10 0 17 35 11 58 -10 33 -31 28 -58 -10 -68 -44 -12 -58 -5 -59 27 -1 20 -2 22 -6 6 -3 -11 -10 -26 -15 -32 -8 -10 -1 -17 28 -29 70 -29 204 5 204 52 0 34 14 37 56 12 27 -16 39 -19 42 -10 3 10 7 10 18 2 15 -13 34 -5 34 13 0 14 65 61 98 72 13 3 27 18 32 31 5 13 15 23 22 22 9 -2 12 6 10 22 l-4 25 24 -22 c13 -13 32 -23 41 -23 16 0 56 18 67 31 3 3 20 11 38 18 34 14 43 46 20 69 -16 16 -28 15 -28 -3 0 -8 -5 -15 -11 -15 -6 0 -8 -9 -4 -22 6 -17 4 -20 -10 -15 -9 4 -21 7 -26 7 -5 0 -9 5 -9 11 0 5 4 7 10 4 5 -3 12 6 16 20 3 14 10 25 15 25 5 0 18 9 28 19 14 14 20 37 23 88 l3 68 -40 1 c-22 1 -58 -1 -80 -3z m-50 -23 c3 -5 -1 -10 -9 -10 -9 0 -16 5 -16 10 0 6 4 10 9 10 6 0 13 -4 16 -10z m-640 -89 c-3 -6 -12 -11 -19 -11 -19 0 -57 -82 -45 -96 7 -8 1 -13 -18 -17 -35 -7 -42 -1 -18 17 14 10 16 20 11 42 -4 16 -13 33 -19 37 -8 6 -6 7 5 3 10 -3 37 6 60 19 42 24 56 26 43 6z m604 -29 c26 -97 26 -98 8 -83 -10 7 -17 10 -17 5 0 -4 -5 -3 -12 4 -9 9 -9 15 0 24 17 17 15 33 -2 19 -10 -9 -15 -8 -20 4 -3 9 0 15 11 15 12 0 14 7 9 30 -8 44 11 28 23 -18z m54 4 c6 6 47 -54 47 -70 0 -5 -7 -3 -16 5 -13 11 -14 9 -9 -14 5 -17 3 -27 -4 -27 -6 0 -11 7 -11 15 0 8 -5 15 -11 15 -5 0 -17 16 -25 35 -16 39 -11 63 10 46 7 -6 16 -8 19 -5z m-663 -46 c0 -5 -4 -10 -10 -10 -5 0 -10 5 -10 10 0 6 5 10 10 10 6 0 10 -4 10 -10z m560 0 c0 -5 -2 -10 -4 -10 -3 0 -8 5 -11 10 -3 6 -1 10 4 10 6 0 11 -4 11 -10z m-350 -70 c0 -11 -4 -20 -8 -20 -4 0 -8 9 -9 20 -1 11 2 20 8 20 5 0 9 -9 9 -20z m-65 -30 c3 -5 1 -10 -4 -10 -6 0 -11 5 -11 10 0 6 2 10 4 10 3 0 8 -4 11 -10z m-405 -4 c0 -3 -4 -8 -10 -11 -5 -3 -10 -1 -10 4 0 6 5 11 10 11 6 0 10 -2 10 -4z m440 -16 c0 -5 7 -7 15 -4 17 7 21 -11 4 -21 -6 -4 -8 -13 -5 -21 3 -8 -1 -14 -9 -14 -8 0 -16 3 -16 8 -7 43 -6 62 2 62 5 0 9 -4 9 -10z m-470 -30 c0 -5 -4 -10 -10 -10 -5 0 -10 5 -10 10 0 6 5 10 10 10 6 0 10 -4 10 -10z m385 -20 c3 -5 -3 -10 -14 -10 -12 0 -21 5 -21 10 0 6 6 10 14 10 8 0 18 -4 21 -10z m-205 -19 c0 -5 -9 -7 -20 -4 -11 3 -20 7 -20 9 0 2 9 4 20 4 11 0 20 -4 20 -9z m-110 -42 c-7 -11 -14 -18 -17 -15 -8 8 5 36 17 36 7 0 7 -6 0 -21z"/>
 <path d="M2761 1439 c-5 -14 -5 -28 0 -33 13 -15 11 -28 -3 -20 -7 4 -10 4 -6 -1 4 -4 2 -17 -4 -29 -17 -31 -10 -96 15 -136 27 -43 54 -128 61 -194 7 -60 22 -79 53 -71 28 7 29 1 3 -25 -35 -35 -25 -130 28 -251 23 -52 54 -79 92 -79 37 0 45 9 74 78 30 72 31 71 -29 207 -31 71 -38 80 -60 78 -29 -2 -31 3 -10 24 17 17 12 68 -11 114 -7 15 -16 42 -19 60 -10 55 -26 65 -74 45 -57 -22 -75 -20 -27 4 56 28 57 33 4 26 -56 -8 -67 8 -13 18 29 6 35 11 35 32 0 24 -39 74 -58 74 -5 0 -12 19 -15 41 -7 54 -23 71 -36 38z m26 -61 c-3 -8 -6 -5 -6 6 -1 11 2 17 5 13 3 -3 4 -12 1 -19z m93 -293 c0 -8 -4 -15 -10 -15 -5 0 -10 7 -10 15 0 8 5 15 10 15 6 0 10 -7 10 -15z"/>
 <path d="M1607 1323 c-4 -3 -7 -13 -7 -21 0 -8 -13 -40 -28 -71 -39 -76 -56 -143 -48 -186 6 -30 11 -35 34 -35 15 0 53 -13 84 -29 68 -34 84 -28 99 37 10 48 -4 84 -30 74 -10 -4 -13 -1 -8 11 5 12 1 17 -12 17 -10 0 -22 7 -25 16 -3 8 -2 12 4 9 6 -3 10 -1 10 4 0 6 9 11 21 11 15 0 19 -5 14 -19 -7 -22 18 -46 40 -37 27 10 19 71 -14 107 -17 18 -29 35 -29 38 3 13 -15 41 -26 41 -6 0 -19 9 -29 20 -17 20 -38 26 -50 13z m113 -143 c12 -8 11 -10 -7 -10 -13 0 -23 5 -23 10 0 13 11 13 30 0z m40 -16 c0 -8 -5 -12 -10 -9 -6 4 -8 11 -5 16 9 14 15 11 15 -7z"/>
 <path d="M2438 1175 c-10 -13 -18 -30 -18 -37 0 -10 2 -10 9 1 7 11 11 9 21 -9 16 -30 32 -12 28 30 -4 41 -18 47 -40 15z"/>
 <path d="M2005 1120 c-3 -5 -15 -43 -25 -84 -17 -63 -18 -83 -9 -126 11 -52 30 -80 55 -80 17 0 19 -16 2 -23 -7 -3 12 -6 42 -6 39 -1 51 2 40 9 -8 5 -25 10 -37 10 -13 0 -23 5 -23 10 0 6 22 10 48 10 81 0 85 13 73 231 -1 31 -45 56 -66 39 -9 -8 -14 -7 -17 1 -5 15 -75 22 -83 9z m128 -69 c3 -11 2 -22 -1 -25 -10 -10 -42 -6 -42 5 0 5 5 7 10 4 6 -3 10 3 10 14 0 26 16 27 23 2z m-123 -46 c0 -8 -4 -15 -10 -15 -5 0 -10 7 -10 15 0 8 5 15 10 15 6 0 10 -7 10 -15z m100 -16 c0 -5 -4 -9 -10 -9 -5 0 -10 7 -10 16 0 8 5 12 10 9 6 -3 10 -10 10 -16z"/>
 <path d="M2429 1072 c-40 -24 -50 -46 -24 -56 8 -3 15 -12 15 -20 0 -16 70 -28 85 -15 5 5 17 9 26 9 14 0 16 7 12 33 -3 17 -9 34 -14 35 -5 2 -9 12 -9 23 0 26 -40 22 -91 -9z"/>
 <path d="M1565 971 c-19 -8 -19 -8 0 -18 11 -6 42 -14 69 -18 57 -9 57 7 0 31 -37 16 -41 16 -69 5z"/>
 <path d="M1526 921 c-4 -6 -4 -31 -1 -54 4 -24 2 -61 -3 -81 -9 -33 -9 -36 6 -32 9 3 34 8 56 12 30 5 38 4 34 -7 -3 -8 -27 -18 -56 -22 -42 -7 -52 -12 -52 -28 0 -44 102 -100 142 -78 20 11 57 181 41 186 -7 3 -9 17 -6 37 6 39 -7 51 -62 59 -22 4 -52 9 -66 13 -15 3 -30 1 -33 -5z m81 -57 c-3 -3 -12 -4 -19 -1 -8 3 -5 6 6 6 11 1 17 -2 13 -5z m3 -32 c0 -13 -12 -22 -22 -16 -10 6 -1 24 13 24 5 0 9 -4 9 -8z m40 -7 c0 -8 -4 -15 -10 -15 -5 0 -10 7 -10 15 0 8 5 15 10 15 6 0 10 -7 10 -15z m-50 -111 c0 -8 -4 -12 -10 -9 -5 3 -10 10 -10 16 0 5 5 9 10 9 6 0 10 -7 10 -16z m40 -4 c0 -5 -4 -10 -10 -10 -5 0 -10 5 -10 10 0 6 5 10 10 10 6 0 10 -4 10 -10z"/>
 <path d="M2500 871 c0 -5 -9 -13 -20 -16 -11 -3 -20 -11 -20 -17 0 -6 9 -8 20 -5 25 7 26 -9 1 -22 -13 -7 -17 -19 -15 -40 2 -21 0 -29 -9 -26 -9 4 -12 -15 -12 -72 l0 -78 40 -8 c22 -5 54 -9 70 -10 29 -2 30 0 29 38 -1 52 -10 112 -31 196 -13 54 -20 69 -35 69 -10 0 -18 -4 -18 -9z m25 -155 c17 -12 17 -13 -8 -20 -26 -6 -38 -26 -17 -26 6 0 10 -9 10 -20 0 -26 -16 -26 -30 1 -13 24 -4 79 14 79 7 0 20 -6 31 -14z"/>
 <path d="M1997 746 c-3 -20 -2 -49 3 -66 5 -16 6 -62 3 -103 -5 -62 -3 -75 12 -87 10 -8 20 -13 22 -12 2 2 21 1 43 -3 22 -4 52 -4 67 -1 28 6 28 7 30 94 1 48 3 99 4 113 3 45 -29 76 -86 83 -27 3 -59 9 -71 12 -18 5 -22 0 -27 -30z m103 -64 c0 -12 -23 -32 -37 -32 -7 0 -13 7 -13 16 0 11 6 14 21 9 15 -5 19 -4 15 4 -4 6 -2 11 3 11 6 0 11 -4 11 -8z m-19 -54 c22 -18 42 -68 28 -68 -8 0 -8 -5 1 -15 14 -17 5 -35 -19 -35 -25 0 -33 11 -20 27 9 10 8 13 -4 13 -19 0 -31 16 -21 31 4 8 9 8 17 0 22 -22 28 -10 8 15 -31 40 -24 60 10 32z m79 -54 c0 -8 -5 -12 -10 -9 -6 4 -8 11 -5 16 9 14 15 11 15 -7z"/>
 <path d="M1528 612 c-34 -3 -39 -7 -47 -40 -27 -98 26 -262 84 -262 38 0 44 29 11 57 -18 15 -23 24 -14 27 39 13 42 14 20 15 -22 1 -22 2 -7 18 16 16 18 16 27 0 24 -44 62 0 70 81 4 40 1 58 -11 72 -18 22 -79 36 -133 32z m88 -129 c-10 -10 -19 5 -10 18 6 11 8 11 12 0 2 -7 1 -15 -2 -18z m-33 0 c-7 -2 -19 -2 -25 0 -7 3 -2 5 12 5 14 0 19 -2 13 -5z m47 -53 c0 -5 -4 -10 -10 -10 -5 0 -10 5 -10 10 0 6 5 10 10 10 6 0 10 -4 10 -10z"/>
 <path d="M2530 543 c-14 -7 -39 -13 -57 -13 -36 0 -38 -5 -48 -100 -12 -122 -8 -167 15 -205 27 -44 47 -55 99 -55 31 0 44 6 60 26 35 44 45 144 20 192 -10 20 -16 47 -13 65 11 73 -26 117 -76 90z m-60 -223 c0 -5 -4 -10 -10 -10 -5 0 -10 5 -10 10 0 6 5 10 10 10 6 0 10 -4 10 -10z m30 -82 c0 -13 -23 -5 -28 10 -2 7 2 10 12 6 9 -3 16 -11 16 -16z"/>
 <path d="M2144 423 c5 -10 -6 -13 -46 -13 -48 0 -56 -4 -84 -34 -71 -77 -64 -248 13 -313 43 -37 53 -39 91 -19 30 15 72 83 65 104 -3 6 1 12 7 12 8 0 10 18 6 63 -3 34 -8 87 -11 117 -4 38 -12 61 -26 75 -12 11 -19 14 -15 8z"/>
 <path d="M1617 381 c-22 -14 -25 -20 -13 -24 14 -6 24 2 40 31 9 16 6 15 -27 -7z"/>
 </g>

</svg>