<!DOCTYPE svg PUBLIC "-//W3C//DTD SVG 20010904//EN" "http://www.w3.org/TR/2001/REC-SVG-20010904/DTD/svg10.dtd">
<svg version="1.0" xmlns="http://www.w3.org/2000/svg" width="253px" height="287px" viewBox="0 0 2530 2870" preserveAspectRatio="xMidYMid meet">
<g id="layer1" fill="#a80607" stroke="none">
 <path d="M1200 2820 c-8 -5 -27 -10 -41 -10 -15 0 -32 -7 -39 -15 -7 -8 -19 -15 -26 -15 -34 0 -121 -49 -147 -83 -15 -21 -33 -37 -38 -37 -6 0 -25 -11 -43 -25 -18 -14 -39 -25 -46 -25 -7 0 -10 -7 -6 -16 3 -9 2 -12 -5 -8 -6 3 -19 -3 -30 -15 -11 -12 -24 -21 -30 -21 -6 0 -7 -4 -4 -10 3 -5 0 -7 -8 -4 -16 6 -47 -31 -47 -56 0 -9 -20 -38 -45 -64 -25 -27 -45 -55 -45 -62 0 -7 -12 -26 -26 -43 -14 -17 -23 -31 -19 -31 10 0 -123 -126 -165 -158 -19 -14 -39 -31 -45 -37 -5 -6 -31 -20 -57 -31 -68 -29 -188 -133 -188 -163 0 -21 2 -22 17 -10 9 8 28 14 42 15 14 0 33 4 42 8 10 4 16 2 17 -6 1 -22 11 -60 17 -66 3 -3 13 1 22 10 11 12 21 14 34 7 11 -5 28 -14 39 -19 33 -17 38 -12 46 35 3 25 11 46 18 46 6 1 20 2 31 3 22 1 26 33 10 71 -8 17 -7 18 7 7 12 -10 18 -10 28 2 6 9 9 19 6 25 -3 5 1 22 9 37 8 16 15 46 15 66 0 25 4 37 12 35 7 -1 14 8 16 19 3 20 5 20 37 -9 33 -29 42 -54 10 -27 -19 16 -32 5 -16 -14 6 -8 10 -20 9 -27 -2 -8 7 -15 21 -17 13 -2 21 0 17 6 -4 6 2 8 14 5 11 -3 20 0 20 6 0 6 -10 11 -21 11 -18 0 -19 2 -9 15 7 8 19 15 26 15 8 0 14 4 14 9 0 14 43 21 56 10 20 -17 58 -6 69 19 11 25 32 30 32 7 0 -29 36 -96 49 -91 10 4 12 -2 8 -22 -9 -43 23 -66 83 -59 26 3 52 11 57 18 6 8 22 15 36 16 22 2 21 1 -7 -12 -18 -8 -33 -21 -33 -29 0 -9 -12 -16 -27 -18 -20 -2 -28 -9 -28 -23 0 -15 9 -21 44 -27 24 -4 47 -10 50 -14 3 -3 -11 -3 -31 1 -38 7 -38 7 -38 -26 0 -105 137 -221 194 -164 12 13 14 20 6 25 -8 5 -7 9 5 13 9 4 13 3 10 -3 -3 -6 -1 -10 5 -10 5 0 19 15 30 33 11 17 20 25 20 17 1 -9 6 -5 14 10 8 14 12 28 10 32 -3 5 -1 8 4 8 6 0 16 15 23 33 7 17 14 35 17 40 2 4 -3 7 -11 7 -9 0 -18 -6 -20 -12 -4 -9 -6 -8 -6 2 -1 8 -31 30 -69 47 -37 18 -56 30 -42 27 14 -3 31 -6 38 -6 6 -1 12 -5 12 -10 0 -5 5 -6 10 -3 5 3 10 2 10 -3 0 -7 64 -32 83 -32 11 0 37 63 30 74 -3 6 -3 8 2 4 8 -7 47 57 48 80 0 6 3 12 7 12 6 0 71 134 85 175 4 11 9 15 12 8 2 -6 -3 -28 -11 -48 -9 -21 -16 -45 -15 -54 0 -17 10 0 24 44 6 18 7 18 19 -5 7 -14 9 -32 5 -41 -4 -9 -5 -25 -2 -37 6 -24 -6 -29 -25 -10 -9 9 -15 9 -24 0 -9 -9 -8 -12 4 -12 21 0 27 -20 15 -47 -11 -25 -30 -32 -21 -8 4 10 0 15 -11 15 -9 0 -14 4 -10 10 3 5 13 6 22 3 11 -4 14 -3 9 5 -4 7 -14 12 -22 12 -8 0 -14 6 -14 13 0 6 -7 -1 -15 -17 -18 -33 -19 -39 -5 -31 6 3 10 1 10 -5 0 -7 -7 -10 -15 -6 -11 4 -24 -12 -45 -54 -43 -84 -41 -90 25 -90 32 0 55 4 55 11 0 5 -4 8 -9 5 -4 -3 -28 -2 -52 3 l-44 9 35 2 c19 1 44 2 55 1 19 -2 19 -1 2 12 -16 14 -16 15 4 20 13 4 18 10 13 18 -5 9 -1 11 14 7 19 -5 22 -2 22 28 0 19 5 33 11 32 19 -5 42 76 49 172 5 73 7 84 10 45 2 -27 2 -74 1 -102 -2 -31 1 -53 7 -53 6 0 17 -3 25 -6 10 -3 16 3 19 20 3 14 1 23 -3 20 -5 -3 -9 -12 -9 -21 0 -9 -3 -13 -7 -9 -5 4 -9 33 -9 64 -1 31 0 52 3 45 2 -7 12 -9 21 -6 15 6 15 5 4 -10 -12 -14 -12 -19 2 -32 9 -9 16 -20 16 -25 0 -18 96 -104 115 -103 16 1 16 1 3 -3 -10 -3 -18 -12 -18 -20 0 -8 5 -12 10 -9 6 3 10 -4 10 -17 0 -18 9 -27 36 -37 21 -8 39 -22 45 -38 5 -13 16 -31 25 -40 8 -8 12 -18 8 -22 -4 -3 -9 0 -11 7 -6 15 -23 16 -23 2 0 -14 66 -80 80 -80 6 0 9 3 7 8 -3 4 27 8 66 9 40 1 88 2 107 2 26 1 31 3 20 11 -13 8 -12 12 8 25 12 9 22 27 22 41 0 25 -15 33 -23 12 -4 -8 -6 -7 -6 3 -1 9 5 19 12 22 24 9 28 449 4 473 -4 4 -7 18 -7 30 0 37 -85 188 -101 178 -5 -3 -6 1 -4 8 8 20 -34 55 -82 67 -23 7 -45 16 -48 21 -3 6 -21 10 -38 10 -18 0 -49 5 -71 11 -37 10 -96 -2 -96 -21 0 -4 -11 -12 -25 -18 -14 -7 -31 -24 -37 -39 -11 -27 -12 -27 -16 -5 -4 26 -28 24 -26 -2 1 -9 -2 -16 -7 -16 -5 0 -9 -21 -9 -47 0 -68 -10 -47 -11 25 -1 51 -5 62 -19 62 -16 0 -50 29 -50 43 0 3 8 8 18 10 9 3 2 5 -15 6 -31 1 -46 -13 -22 -21 7 -2 5 -9 -5 -17 -14 -12 -16 -12 -10 3 4 11 1 16 -12 16 -11 0 -29 11 -41 23 -12 13 -41 29 -65 36 -24 7 -53 17 -66 22 -29 11 -43 11 -62 -1z m327 -253 c-3 -11 -15 11 -46 86 -20 51 -10 43 20 -16 17 -32 28 -64 26 -70z m3 -91 c0 -3 -4 -8 -10 -11 -5 -3 -10 -1 -10 4 0 6 5 11 10 11 6 0 10 -2 10 -4z m-28 -128 c-7 -7 -12 -8 -12 -2 0 6 3 14 7 17 3 4 9 5 12 2 2 -3 -1 -11 -7 -17z m-875 -120 c-3 -7 -5 -2 -5 12 0 14 2 19 5 13 2 -7 2 -19 0 -25z m623 22 c0 -5 -2 -10 -4 -10 -3 0 -8 5 -11 10 -3 6 -1 10 4 10 6 0 11 -4 11 -10z m-649 -17 c13 -16 12 -17 -3 -4 -10 7 -18 15 -18 17 0 8 8 3 21 -13z m839 -2 c0 -5 -6 -16 -13 -23 -7 -7 -16 -21 -20 -30 -3 -10 -11 -18 -17 -18 -19 0 -10 27 14 46 14 10 23 21 20 26 -3 4 0 8 5 8 6 0 11 -4 11 -9z m208 -36 c-3 -3 -9 2 -12 12 -6 14 -5 15 5 6 7 -7 10 -15 7 -18z m-411 -7 c-3 -8 -6 -5 -6 6 -1 11 2 17 5 13 3 -3 4 -12 1 -19z m-532 2 c-3 -5 -12 -10 -18 -10 -7 0 -6 4 3 10 19 12 23 12 15 0z m399 -5 c-4 -8 -11 -12 -16 -9 -6 4 -5 10 3 15 19 12 19 11 13 -6z m-204 -5 c0 -5 -8 -10 -17 -10 -15 0 -16 2 -3 10 19 12 20 12 20 0z m380 -36 c0 -2 -24 -4 -52 -3 -38 1 -46 3 -28 8 24 7 80 3 80 -5z m35 -14 c3 -5 1 -10 -4 -10 -6 0 -11 5 -11 10 0 6 2 10 4 10 3 0 8 -4 11 -10z m-96 -16 c2 -2 2 -7 -2 -10 -3 -3 -16 2 -29 11 l-23 17 25 -7 c14 -4 27 -9 29 -11z m-774 -14 c3 -6 -1 -7 -9 -4 -18 7 -21 14 -7 14 6 0 13 -4 16 -10z m865 -10 c0 -5 -5 -10 -11 -10 -5 0 -7 5 -4 10 3 6 8 10 11 10 2 0 4 -4 4 -10z m-832 -36 c2 -1 -1 -5 -7 -8 -5 -4 -15 4 -22 16 -12 22 -11 22 7 8 10 -8 20 -15 22 -16z m782 16 c0 -5 -5 -10 -11 -10 -5 0 -7 5 -4 10 3 6 8 10 11 10 2 0 4 -4 4 -10z m535 0 c-3 -5 -11 -10 -16 -10 -6 0 -7 5 -4 10 3 6 11 10 16 10 6 0 7 -4 4 -10z m-695 -4 c0 -3 -4 -8 -10 -11 -5 -3 -10 -1 -10 4 0 6 5 11 10 11 6 0 10 -2 10 -4z m55 -16 c-3 -5 -2 -10 3 -10 16 0 84 -31 79 -36 -2 -3 -20 2 -38 10 -19 8 -43 17 -54 21 -16 5 -17 8 -5 15 19 12 23 12 15 0z m152 -20 c-5 -34 -17 -35 -17 -1 0 19 4 30 10 26 5 -3 8 -15 7 -25z m-7 -50 c0 -5 -4 -10 -10 -10 -5 0 -10 5 -10 10 0 6 5 10 10 10 6 0 10 -4 10 -10z m770 0 c13 -9 13 -11 0 -20 -22 -15 -29 -12 -27 10 1 22 6 24 27 10z"/>
 <path d="M940 2730 c0 -5 5 -10 10 -10 6 0 10 5 10 10 0 6 -4 10 -10 10 -5 0 -10 -4 -10 -10z"/>
 <path d="M767 2143 c-12 -11 -8 -23 8 -23 8 0 15 7 15 15 0 16 -12 20 -23 8z"/>
 <path d="M1320 1926 c-6 -6 -10 -15 -10 -21 0 -6 -11 -33 -24 -61 -19 -38 -21 -50 -10 -52 17 -4 72 33 99 67 11 13 28 33 38 43 20 21 15 24 -46 30 -20 2 -42 -1 -47 -6z m40 -21 c0 -8 -4 -15 -9 -15 -5 0 -11 7 -15 15 -3 9 0 15 9 15 8 0 15 -7 15 -15z m10 -29 c0 -3 -4 -8 -10 -11 -5 -3 -10 -1 -10 4 0 6 5 11 10 11 6 0 10 -2 10 -4z m-30 -20 c0 -2 -7 -6 -15 -10 -8 -3 -15 -1 -15 4 0 6 7 10 15 10 8 0 15 -2 15 -4z"/>
 <path d="M1511 1862 c-1 -9 -8 -11 -22 -7 -16 5 -20 3 -16 -6 2 -8 10 -13 17 -11 7 1 18 -3 26 -9 8 -7 18 -9 21 -5 4 4 3 10 -3 14 -6 4 -14 14 -17 22 -4 10 -6 11 -6 2z"/>
 <path d="M1410 1847 c-30 -11 -35 -16 -33 -42 1 -17 -1 -22 -3 -12 -7 21 -23 22 -30 2 -4 -8 -14 -15 -24 -15 -11 0 -22 -4 -25 -10 -3 -6 4 -10 18 -10 13 0 41 -12 62 -26 24 -16 58 -28 90 -31 l52 -5 6 33 c3 19 8 43 12 54 6 17 4 17 -12 -3 -18 -22 -21 -23 -36 -8 -10 11 -18 12 -22 6 -4 -7 -14 -3 -26 11 -21 25 -24 35 -9 44 6 3 10 -1 10 -10 0 -11 5 -15 14 -12 8 3 17 1 19 -6 2 -7 8 -8 13 -4 4 4 -3 18 -17 31 -22 22 -27 23 -59 13z"/>
 <path d="M163 1836 c8 -21 -40 -43 -57 -26 -28 28 -62 -15 -44 -55 14 -32 99 -68 138 -60 19 4 30 12 27 19 -3 7 1 13 8 13 7 0 33 9 59 21 32 16 46 28 46 42 0 11 -4 20 -10 20 -5 0 -10 -4 -10 -10 0 -5 -9 -10 -21 -10 -29 0 -59 -18 -59 -35 0 -9 -9 -15 -22 -15 -12 0 -18 3 -15 7 4 3 1 13 -6 21 -6 8 -12 29 -12 45 0 17 -6 32 -14 35 -10 3 -12 0 -8 -12z m-23 -61 c19 -23 8 -25 -14 -4 -11 11 -15 19 -9 19 6 0 16 -7 23 -15z"/>
 <path d="M1594 1825 c3 -10 -1 -15 -12 -15 -13 0 -24 -16 -36 -50 -10 -28 -16 -53 -13 -56 2 -3 18 6 34 20 17 14 33 23 37 19 3 -3 6 5 6 18 0 14 5 30 11 36 15 15 4 43 -17 43 -10 0 -14 -5 -10 -15z m-14 -45 c0 -5 -5 -10 -11 -10 -5 0 -7 5 -4 10 3 6 8 10 11 10 2 0 4 -4 4 -10z"/>
 <path d="M1927 1813 c-12 -6 -25 -22 -28 -35 -3 -12 -12 -22 -19 -20 -7 2 -26 4 -41 5 -15 1 -27 6 -26 11 1 6 -6 12 -15 14 -16 3 -18 -5 -19 -60 -1 -35 -4 -51 -6 -35 -2 15 -10 27 -17 27 -14 0 -18 -29 -5 -45 4 -5 10 -28 13 -50 4 -23 8 -51 11 -63 2 -14 -4 -31 -15 -42 -12 -12 -20 -34 -20 -54 0 -19 -3 -42 -6 -50 -13 -34 -33 16 -34 82 0 34 -4 62 -10 62 -5 0 -10 -4 -10 -10 0 -5 -12 0 -26 13 -19 16 -22 23 -11 25 11 2 13 11 7 37 -4 18 -5 44 -3 58 3 14 0 28 -6 31 -6 4 -11 1 -11 -6 0 -11 -2 -11 -9 0 -10 17 -73 -16 -114 -60 -23 -24 -26 -33 -15 -40 10 -8 9 -9 -4 -4 -11 3 -19 -2 -23 -14 -3 -11 -19 -29 -36 -40 -16 -12 -29 -27 -29 -33 0 -7 -16 -25 -35 -40 -37 -29 -49 -23 -15 8 11 10 20 29 20 43 0 16 4 22 14 19 7 -3 32 14 57 39 44 44 45 53 7 33 -12 -6 -42 -13 -67 -15 -52 -3 -37 8 37 26 26 7 42 16 42 26 0 8 4 13 9 10 13 -8 42 4 35 15 -3 5 -25 8 -50 7 -35 -1 -48 3 -59 19 -7 10 -32 25 -54 33 -37 12 -43 11 -61 -5 -11 -10 -39 -19 -64 -20 -24 -2 -57 -12 -72 -22 -16 -10 -31 -18 -34 -17 -17 3 -40 -11 -45 -27 -3 -10 -15 -21 -25 -24 -30 -10 -60 -59 -60 -99 0 -20 5 -67 12 -106 11 -65 14 -70 38 -70 14 0 40 -4 58 -9 30 -9 91 -4 203 15 22 3 39 2 43 -5 15 -23 36 -11 36 19 0 28 -2 30 -27 24 -25 -6 -26 -5 -12 7 9 8 19 21 22 29 4 12 6 11 6 -2 1 -16 3 -16 21 2 24 24 49 28 30 5 -16 -19 2 -20 30 -3 15 10 22 9 38 -6 40 -36 34 -67 -16 -79 -19 -5 -25 0 -34 24 -5 16 -14 26 -19 23 -5 -3 -7 -9 -4 -14 3 -5 1 -18 -5 -29 -9 -18 -6 -21 27 -30 45 -13 106 -14 99 -3 -3 5 8 6 25 4 16 -2 29 0 29 6 0 5 11 13 25 16 16 4 25 13 25 27 0 27 23 34 52 15 37 -24 92 -15 121 20 14 17 44 39 66 49 25 11 41 25 41 35 0 10 10 20 21 23 16 4 20 11 15 23 -6 17 -6 17 12 1 27 -25 57 -21 123 14 60 33 75 59 47 87 -17 17 -25 15 -31 -9 -4 -14 -10 -18 -19 -13 -11 6 -11 5 0 -8 18 -22 -1 -31 -24 -12 -10 9 -13 13 -6 9 6 -3 12 -1 12 5 0 6 18 29 40 50 39 37 40 40 40 104 l0 67 -96 -3 c-52 -2 -105 -8 -117 -15z m33 -13 c0 -5 -4 -10 -10 -10 -5 0 -10 5 -10 10 0 6 5 10 10 10 6 0 10 -4 10 -10z m-646 -88 c-34 -29 -55 -68 -50 -95 3 -20 0 -26 -20 -30 -29 -5 -32 9 -3 18 16 5 18 10 9 20 -21 26 -7 59 35 82 49 26 56 28 29 5z m615 -40 c5 -26 12 -54 16 -63 4 -10 0 -16 -9 -16 -8 0 -12 6 -8 15 3 9 1 13 -4 9 -6 -3 -10 17 -10 49 -1 30 0 54 2 54 1 0 7 -21 13 -48z m36 8 c4 -6 10 -8 15 -5 10 6 53 -45 45 -53 -3 -3 -12 3 -21 14 -14 18 -15 18 -8 -6 4 -14 9 -31 11 -37 3 -7 0 -13 -6 -13 -6 0 -11 7 -11 15 0 7 -7 18 -17 23 -9 5 -17 18 -18 28 0 11 -4 25 -9 32 -4 6 -3 12 3 12 5 0 13 -5 16 -10z m-75 -55 c14 -19 14 -19 -2 -6 -10 7 -18 18 -18 24 0 6 1 8 3 6 1 -2 9 -13 17 -24z m-573 9 c-3 -3 -12 -4 -19 -1 -8 3 -5 6 6 6 11 1 17 -2 13 -5z m297 -23 c3 -5 -3 -11 -15 -14 -16 -4 -18 -3 -8 9 13 16 16 17 23 5z m-289 -11 c-3 -5 -12 -10 -18 -10 -7 0 -6 4 3 10 19 12 23 12 15 0z m175 -26 c0 -8 -4 -12 -10 -9 -5 3 -10 10 -10 16 0 5 5 9 10 9 6 0 10 -7 10 -16z m25 6 c3 -5 1 -10 -4 -10 -6 0 -11 5 -11 10 0 6 2 10 4 10 3 0 8 -4 11 -10z m-465 -44 c0 -3 -4 -8 -10 -11 -5 -3 -10 -1 -10 4 0 6 5 11 10 11 6 0 10 -2 10 -4z m460 -41 c-6 -8 -9 -19 -5 -25 3 -5 -1 -10 -9 -10 -9 0 -16 9 -16 21 0 11 4 18 9 14 5 -3 12 -1 16 5 3 5 9 10 12 10 3 0 0 -7 -7 -15z m-115 -33 c-3 -3 -11 0 -18 7 -9 10 -8 11 6 5 10 -3 15 -9 12 -12z m-201 -10 c2 -4 -4 -8 -14 -8 -10 0 -16 4 -14 8 3 4 9 8 14 8 5 0 11 -4 14 -8z m478 -24 c-7 -7 -12 -8 -12 -2 0 6 3 14 7 17 3 4 9 5 12 2 2 -3 -1 -11 -7 -17z m-586 -25 c-10 -10 -19 5 -10 18 6 11 8 11 12 0 2 -7 1 -15 -2 -18z m264 -32 c0 -6 -4 -12 -8 -15 -5 -3 -9 1 -9 9 0 8 4 15 9 15 4 0 8 -4 8 -9z"/>
 <path d="M1710 1493 c0 -5 5 -15 10 -23 8 -12 10 -11 10 8 0 12 -4 22 -10 22 -5 0 -10 -3 -10 -7z"/>
 <path d="M2130 1435 c-10 -12 -10 -21 -1 -41 6 -14 7 -23 2 -20 -5 3 -12 -4 -16 -17 -11 -33 -12 -41 -6 -52 3 -5 4 -22 2 -37 -1 -15 8 -43 23 -67 15 -22 25 -44 24 -48 -1 -5 3 -17 9 -28 6 -11 14 -42 17 -70 4 -27 12 -65 18 -83 8 -28 14 -33 34 -29 28 5 29 4 8 -28 -29 -45 -14 -159 34 -255 21 -42 34 -56 59 -63 57 -17 78 -4 108 66 24 58 26 68 15 108 -6 24 -27 77 -47 117 -32 69 -36 73 -61 67 -25 -6 -26 -6 -9 13 23 25 22 47 -11 144 -36 106 -38 111 -62 98 -29 -16 -48 -11 -20 5 l25 14 -35 1 c-29 0 -32 2 -17 11 31 18 13 101 -22 105 -6 1 -15 2 -21 3 -5 0 -10 18 -10 40 0 46 -21 69 -40 46z m70 -199 c0 -3 -4 -8 -10 -11 -5 -3 -10 -1 -10 4 0 6 5 11 10 11 6 0 10 -2 10 -4z m5 -46 c-3 -5 -12 -10 -18 -10 -7 0 -6 4 3 10 19 12 23 12 15 0z m38 -121 c-9 -9 -12 -7 -10 9 1 14 5 18 11 12 7 -7 6 -14 -1 -21z"/>
 <path d="M970 1292 c-7 -20 -21 -53 -32 -72 -24 -41 -48 -123 -48 -166 0 -46 19 -63 72 -66 25 -2 44 -6 41 -10 -2 -5 1 -8 6 -8 6 0 11 -4 11 -10 0 -6 -9 -6 -26 0 -14 6 -37 7 -51 4 -42 -11 -3 -36 64 -42 55 -5 57 -4 43 13 -8 11 -10 16 -3 12 18 -11 42 3 58 33 11 22 12 30 2 33 -9 4 -9 6 1 6 15 1 16 43 0 59 -9 9 -7 12 9 12 16 0 22 8 27 41 6 36 3 45 -19 67 -14 13 -34 40 -46 58 -11 19 -27 34 -35 34 -8 0 -14 4 -14 8 0 5 -11 14 -24 20 -23 10 -26 9 -36 -26z m67 -164 c-3 -8 -6 -5 -6 6 -1 11 2 17 5 13 3 -3 4 -12 1 -19z m53 12 c0 -5 -9 -14 -20 -20 -15 -8 -20 -8 -20 3 0 8 3 17 7 20 10 10 33 8 33 -3z"/>
 <path d="M1807 1170 c-19 -22 -23 -55 -6 -45 6 4 16 -1 23 -11 16 -22 36 -10 36 21 0 55 -23 70 -53 35z"/>
 <path d="M1381 1114 c-11 -8 -21 -25 -21 -38 0 -12 -5 -27 -11 -33 -7 -7 -12 -45 -12 -91 0 -86 19 -132 54 -132 11 0 19 -4 19 -10 0 -5 -7 -10 -16 -10 -8 0 -12 -4 -9 -10 3 -5 31 -10 62 -10 48 0 54 2 43 15 -7 8 -23 15 -36 15 -13 0 -24 5 -24 11 0 7 11 9 27 6 56 -10 119 39 96 76 -4 6 -6 45 -5 87 3 86 -9 111 -54 115 -16 1 -37 5 -46 9 -40 14 -47 14 -67 0z m119 -84 c0 -17 -2 -19 -14 -8 -14 13 -12 28 5 28 5 0 9 -9 9 -20z m-125 -30 c3 -5 1 -10 -4 -10 -6 0 -11 5 -11 10 0 6 2 10 4 10 3 0 8 -4 11 -10z"/>
 <path d="M1820 1074 c0 -8 -5 -12 -10 -9 -6 3 -13 0 -16 -9 -3 -8 -12 -12 -20 -9 -17 6 -18 -14 -1 -50 14 -31 69 -47 98 -28 11 6 26 11 35 11 12 0 14 7 9 33 -4 17 -12 37 -19 42 -7 6 -11 16 -9 23 3 8 -7 12 -31 12 -26 0 -36 -4 -36 -16z"/>
 <path d="M892 854 c1 -38 -2 -80 -7 -93 -8 -23 -7 -24 31 -16 57 11 63 11 64 0 0 -5 -22 -11 -50 -13 -48 -3 -55 -8 -50 -41 4 -29 83 -81 122 -81 28 0 49 37 52 89 2 28 6 54 10 58 8 8 8 48 -1 56 -4 4 -7 24 -7 45 -1 41 11 35 -123 58 l-43 7 2 -69z m128 -35 c0 -5 -4 -9 -8 -9 -5 0 -9 7 -9 15 0 8 4 12 9 9 4 -3 8 -9 8 -15z m-40 1 c0 -5 -4 -10 -10 -10 -5 0 -10 5 -10 10 0 6 5 10 10 10 6 0 10 -4 10 -10z"/>
 <path d="M1863 858 c-37 -26 -41 -38 -15 -38 16 -1 16 -2 0 -13 -9 -7 -18 -24 -20 -37 -1 -14 -6 -27 -10 -30 -9 -7 -13 -119 -4 -145 6 -20 23 -24 111 -29 29 -1 30 0 31 50 1 28 -9 93 -22 143 -13 50 -23 96 -21 102 4 21 -18 19 -50 -3z m15 -154 c6 3 13 2 16 -2 3 -5 -7 -15 -22 -21 -24 -11 -25 -14 -9 -22 9 -6 17 -14 17 -19 0 -16 -27 -11 -34 5 -8 21 5 80 14 65 4 -7 12 -10 18 -6z"/>
 <path d="M1366 735 c-4 -20 -4 -41 0 -47 4 -7 7 -56 6 -109 l-2 -97 31 -11 c18 -6 58 -11 90 -11 56 0 59 1 59 24 0 14 -5 28 -11 32 -8 4 -8 9 -1 13 6 4 12 43 14 87 4 121 -11 138 -124 138 -9 0 -15 3 -12 8 3 4 -6 8 -19 8 -20 0 -26 -6 -31 -35z m104 -64 c0 -5 -7 -14 -15 -21 -12 -10 -19 -10 -27 -2 -9 9 -7 12 11 12 12 0 19 4 16 10 -3 6 -1 10 4 10 6 0 11 -4 11 -9z m-2 -67 c1 -1 0 -9 -4 -18 -5 -14 -9 -13 -25 8 -25 32 -24 39 4 24 12 -7 23 -13 25 -14z m-28 -44 c13 -7 21 -7 25 0 4 6 11 7 17 4 6 -4 5 -10 -3 -16 -10 -7 -11 -11 -2 -14 17 -7 4 -34 -16 -34 -24 0 -33 11 -20 26 7 9 5 14 -10 19 -12 3 -21 11 -21 16 0 12 7 11 30 -1z m90 6 c0 -2 -7 -7 -16 -10 -8 -3 -12 -2 -9 4 6 10 25 14 25 6z"/>
 <path d="M897 602 c-49 -4 -59 -29 -54 -127 5 -73 33 -147 66 -172 18 -14 51 -17 51 -5 0 4 16 25 35 47 20 21 34 39 32 41 -8 9 -47 -10 -43 -21 3 -9 -3 -11 -22 -6 -36 10 -31 25 12 32 54 9 76 43 72 109 -4 56 -13 90 -25 90 -3 1 -24 4 -46 8 -22 4 -57 6 -78 4z m63 -127 c0 -9 -6 -12 -16 -8 -13 5 -13 7 -2 14 17 11 18 11 18 -6z m30 11 c0 -3 -4 -8 -10 -11 -5 -3 -10 -1 -10 4 0 6 5 11 10 11 6 0 10 -2 10 -4z m-10 -78 c-32 -12 -51 -3 -20 10 14 5 29 7 34 4 5 -3 -1 -9 -14 -14z"/>
 <path d="M1910 540 c-8 -5 -32 -10 -52 -10 -20 0 -40 -6 -45 -12 -14 -23 -32 -215 -23 -254 9 -39 40 -89 53 -85 4 1 15 -5 23 -14 9 -8 29 -15 45 -15 46 0 74 35 89 114 11 60 11 71 -5 106 -10 21 -15 51 -13 65 5 24 -8 75 -25 103 -10 14 -26 15 -47 2z m-70 -224 c0 -3 -4 -8 -10 -11 -5 -3 -10 -1 -10 4 0 6 5 11 10 11 6 0 10 -2 10 -4z m26 -93 c-7 -7 -26 7 -26 19 0 6 6 6 15 -2 9 -7 13 -15 11 -17z"/>
 <path d="M1515 410 c5 -8 -9 -11 -51 -9 -49 2 -60 0 -62 -14 -2 -9 -7 -17 -12 -17 -16 0 -41 -33 -36 -47 3 -8 2 -12 -3 -9 -14 9 -22 -98 -11 -153 12 -66 23 -84 65 -116 27 -21 41 -25 64 -20 29 6 79 54 83 78 2 22 5 32 13 50 4 10 4 43 1 75 -9 71 -13 109 -14 144 -1 17 -10 32 -23 39 -16 8 -20 8 -14 -1z"/>
 </g>
<g id="layer2" fill="#800600" stroke="none">
 </g>

</svg>